<svg width="137" height="64" viewBox="0 0 137 64" fill="none" xmlns="http://www.w3.org/2000/svg">
<path fill-rule="evenodd" clip-rule="evenodd" d="M35.6234 15.8989C32.923 15.8989 30.7339 18.088 30.7339 20.7884C30.7339 23.4888 32.923 25.6779 35.6234 25.6779H77.5333C80.2337 25.6779 82.4228 23.4888 82.4228 20.7884C82.4228 18.088 80.2337 15.8989 77.5333 15.8989H35.6234ZM0 38.9494C0 36.249 2.1891 34.0599 4.8895 34.0599H67.7543C70.4547 34.0599 72.6438 36.249 72.6438 38.9494C72.6438 41.6498 70.4547 43.8389 67.7543 43.8389H4.88951C2.18911 43.8389 0 41.6498 0 38.9494ZM25.1459 57.1104C25.1459 54.41 27.335 52.2209 30.0354 52.2209H71.9453C74.6457 52.2209 76.8348 54.41 76.8348 57.1104C76.8348 59.8108 74.6457 61.9999 71.9453 61.9999H30.0355C27.3351 61.9999 25.1459 59.8108 25.1459 57.1104Z" fill="url(#paint0_linear_114_499)"/>
<path d="M116.173 5.53159L117.106 4.6985C118.112 3.79895 119.399 3.26913 120.755 3.21129C122.112 3.15343 123.44 3.57199 124.519 4.38532C125.597 5.19755 126.36 6.3516 126.699 7.64838C127.037 8.94329 126.936 10.3176 126.409 11.5494L126.408 11.5528M116.173 5.53159L123.84 10.4528L126.408 11.5528M116.173 5.53159V5.53195L88.9482 29.8023C88.948 29.8025 88.9479 29.8027 88.9477 29.8029C84.3191 33.9276 87.0042 41.9532 93.4589 41.9532H99.2709L94.6147 53.2586C94.6145 53.2591 94.6143 53.2595 94.6141 53.26C94.1446 54.3967 94.065 55.6584 94.3857 56.8442C94.7067 58.0312 95.4141 59.086 96.4084 59.8277L98.0554 57.6197L96.4084 59.8277C97.4041 60.5705 98.6258 60.952 99.8739 60.8979C101.121 60.8438 102.303 60.359 103.23 59.537C103.231 59.5362 103.232 59.5354 103.233 59.5346L131.756 34.3258C131.756 34.3257 131.756 34.3255 131.756 34.3254C136.413 30.2113 133.735 22.1553 127.265 22.1553H121.883M116.173 5.53159L121.883 22.1553M126.408 11.5528L121.883 22.1553M126.408 11.5528L121.883 22.1553" fill="white" fill-opacity="0.6" stroke="black" stroke-width="5.58799"/>
<defs>
<linearGradient id="paint0_linear_114_499" x1="-2.71312" y1="39.3166" x2="76.5916" y2="48.242" gradientUnits="userSpaceOnUse">
<stop stop-color="#00011E"/>
<stop offset="1" stop-color="#246EFF"/>
</linearGradient>
</defs>
</svg>
