<svg width="137" height="64" viewBox="0 0 137 64" fill="none" xmlns="http://www.w3.org/2000/svg">
<path fill-rule="evenodd" clip-rule="evenodd" d="M35.6234 15.8989C32.923 15.8989 30.7339 18.088 30.7339 20.7884C30.7339 23.4888 32.923 25.6779 35.6234 25.6779H77.5333C80.2337 25.6779 82.4228 23.4888 82.4228 20.7884C82.4228 18.088 80.2337 15.8989 77.5333 15.8989H35.6234ZM0 38.9494C0 36.249 2.1891 34.0599 4.8895 34.0599H67.7543C70.4547 34.0599 72.6438 36.249 72.6438 38.9494C72.6438 41.6498 70.4547 43.8389 67.7543 43.8389H4.88951C2.18911 43.8389 0 41.6498 0 38.9494ZM25.1459 57.1104C25.1459 54.41 27.335 52.2209 30.0354 52.2209H71.9453C74.6457 52.2209 76.8348 54.41 76.8348 57.1104C76.8348 59.8108 74.6457 61.9999 71.9453 61.9999H30.0355C27.3351 61.9999 25.1459 59.8108 25.1459 57.1104Z" fill="url(#paint0_linear_1273_343)"/>
<path d="M120.874 6.00275C120.171 6.03275 119.498 6.30754 118.967 6.78186V6.78422L90.8069 31.8885C87.9839 34.4036 89.7188 39.1592 93.4589 39.1592H103.443L97.1967 54.326C96.9628 54.8919 96.9226 55.5225 97.0828 56.1148C97.243 56.7072 97.5941 57.2265 98.079 57.5881C98.5638 57.9498 99.1538 58.1325 99.7529 58.1065C100.352 58.0806 100.925 57.8474 101.378 57.445L129.906 32.2319C132.745 29.7238 131.015 24.9493 127.265 24.9493H117.653L123.84 10.4528C124.123 9.79182 124.178 9.05173 123.996 8.35445C123.813 7.65717 123.405 7.0443 122.838 6.61681C122.27 6.18933 121.578 5.97274 120.874 6.00275Z" fill="white" fill-opacity="0.6"/>
<path fill-rule="evenodd" clip-rule="evenodd" d="M114.15 3.59326L115.244 2.61514C116.727 1.29035 118.627 0.505505 120.636 0.419816C122.646 0.334112 124.609 0.954645 126.2 2.15382C127.789 3.35079 128.907 5.04602 129.402 6.94227C129.897 8.83658 129.749 10.847 128.977 12.6511C128.977 12.6517 128.977 12.6522 128.976 12.6528L126.113 19.3613H127.266C136.455 19.3613 140.08 30.6989 133.607 36.4189C133.606 36.4192 133.606 36.4195 133.606 36.4198L105.088 61.6242C105.086 61.6256 105.085 61.6269 105.083 61.6283C103.682 62.8704 101.89 63.6071 99.9951 63.6893C98.0979 63.7716 96.2445 63.1911 94.7379 62.0672C93.2341 60.9455 92.1705 59.3553 91.6887 57.5736C91.2079 55.7957 91.3262 53.9042 92.0299 52.1979C92.0301 52.1973 92.0303 52.1968 92.0306 52.1962C92.0313 52.1945 92.032 52.1929 92.0326 52.1912L95.0985 44.7472H93.459C84.2896 44.7472 80.6543 33.4516 87.0885 27.7173C87.0889 27.7169 87.0893 27.7166 87.0897 27.7162L114.15 3.59326ZM118.968 6.78421L90.807 31.8884C87.984 34.4036 89.7189 39.1592 93.459 39.1592H103.443L97.1968 54.3259C96.9628 54.8919 96.9227 55.5224 97.0829 56.1148C97.2431 56.7072 97.5942 57.2265 98.079 57.5881C98.5639 57.9498 99.1539 58.1325 99.7529 58.1065C100.352 58.0805 100.925 57.8474 101.378 57.445L129.906 32.2319C132.745 29.7238 131.015 24.9493 127.266 24.9493H117.653L123.84 10.4527C123.938 10.2222 124.009 9.98207 124.052 9.73747C124.132 9.28076 124.114 8.80853 123.996 8.35444C123.836 7.74364 123.503 7.1976 123.041 6.78421C123.04 6.78342 123.04 6.78264 123.039 6.78185C122.974 6.72418 122.907 6.66911 122.838 6.6168C122.27 6.18932 121.578 5.97274 120.874 6.00274C120.171 6.03274 119.498 6.30753 118.968 6.78185V6.78421Z" fill="black"/>
<defs>
<linearGradient id="paint0_linear_1273_343" x1="-2.71312" y1="39.3166" x2="76.5916" y2="48.242" gradientUnits="userSpaceOnUse">
<stop stop-color="#00011E"/>
<stop offset="1" stop-color="#246EFF"/>
</linearGradient>
</defs>
</svg>
