<svg width="98" height="46" viewBox="0 0 98 46" fill="none" xmlns="http://www.w3.org/2000/svg">
<rect y="24.0859" width="52" height="7" rx="3.5" fill="url(#paint0_linear_361_331)"/>
<rect x="18" y="37.0859" width="37" height="7" rx="3.5" fill="url(#paint1_linear_361_331)"/>
<rect x="22" y="11.0859" width="37" height="7" rx="3.5" fill="url(#paint2_linear_361_331)"/>
<path d="M83.1595 3.66496L63.6711 21.0382C63.671 21.0383 63.6708 21.0384 63.6707 21.0386C60.3574 23.9911 62.2795 29.736 66.8999 29.736H71.0603L67.7272 37.8286C67.7269 37.8293 67.7266 37.8301 67.7263 37.8308C67.7263 37.8309 67.7263 37.8309 67.7262 37.831C67.3907 38.6443 67.3339 39.5469 67.5634 40.3953L69.4863 39.8752L67.5634 40.3953C67.7931 41.245 68.2995 42 69.0112 42.5309L70.2071 40.9278L69.0112 42.5309C69.724 43.0626 70.5985 43.3357 71.4919 43.297C72.3844 43.2583 73.2306 42.9112 73.8944 42.3228C73.895 42.3222 73.8957 42.3217 73.8963 42.3211L94.3136 24.2762C97.6472 21.3314 95.7306 15.5643 91.0994 15.5643H87.2466L90.4855 7.97478C90.4858 7.97413 90.4861 7.97347 90.4864 7.97282C90.4864 7.97268 90.4865 7.97254 90.4865 7.9724C90.8636 7.0906 90.9359 6.10687 90.6938 5.17994C90.4513 4.25167 89.905 3.42558 89.1334 2.84418C88.3607 2.26198 87.4103 1.96237 86.4392 2.00378C85.4683 2.04519 84.5474 2.42444 83.8268 3.06836L83.1595 3.6647V3.66496Z" fill="white" fill-opacity="0.6" stroke="#26272F" stroke-width="4"/>
<defs>
<linearGradient id="paint0_linear_361_331" x1="52" y1="31.0859" x2="18.0522" y2="6.3305" gradientUnits="userSpaceOnUse">
<stop stop-color="#0053CF"/>
<stop offset="1" stop-color="#246EFF" stop-opacity="0.29"/>
</linearGradient>
<linearGradient id="paint1_linear_361_331" x1="55" y1="44.0859" x2="25.5159" y2="29.1998" gradientUnits="userSpaceOnUse">
<stop stop-color="#0053CF"/>
<stop offset="1" stop-color="#246EFF" stop-opacity="0.29"/>
</linearGradient>
<linearGradient id="paint2_linear_361_331" x1="59" y1="18.0859" x2="29.5159" y2="3.19975" gradientUnits="userSpaceOnUse">
<stop stop-color="#0053CF"/>
<stop offset="1" stop-color="#246EFF" stop-opacity="0.29"/>
</linearGradient>
</defs>
</svg>
