<svg width="98" height="47" viewBox="0 0 98 47" fill="none" xmlns="http://www.w3.org/2000/svg">
<path fill-rule="evenodd" clip-rule="evenodd" d="M25.5 12C23.567 12 22 13.567 22 15.5C22 17.433 23.567 19 25.5 19H55.5C57.433 19 59 17.433 59 15.5C59 13.567 57.433 12 55.5 12H25.5ZM0 28.5C0 26.567 1.567 25 3.5 25H48.5C50.433 25 52 26.567 52 28.5C52 30.433 50.433 32 48.5 32H3.5C1.567 32 0 30.433 0 28.5ZM18 41.5C18 39.567 19.567 38 21.5 38H51.5C53.433 38 55 39.567 55 41.5C55 43.433 53.433 45 51.5 45H21.5C19.567 45 18 43.433 18 41.5Z" fill="url(#paint0_linear_1232_1028)"/>
<path d="M83.1595 4.57908L63.6711 21.9523C63.671 21.9524 63.6708 21.9525 63.6707 21.9527C60.3574 24.9053 62.2795 30.6501 66.8999 30.6501H71.0603L67.7272 38.7427C67.7269 38.7435 67.7266 38.7442 67.7263 38.7449C67.7263 38.745 67.7263 38.7451 67.7262 38.7451C67.3907 39.5584 67.3339 40.4611 67.5634 41.3094L69.4863 40.7893L67.5634 41.3094C67.7931 42.1591 68.2995 42.9141 69.0112 43.445L70.2071 41.8419L69.0112 43.445C69.724 43.9767 70.5985 44.2499 71.4919 44.2111C72.3844 44.1724 73.2306 43.8254 73.8944 43.2369C73.895 43.2364 73.8957 43.2358 73.8963 43.2353L94.3136 25.1903C97.6472 22.2455 95.7306 16.4784 91.0994 16.4784H87.2466L90.4855 8.88891C90.4858 8.88825 90.4861 8.88759 90.4864 8.88694C90.4864 8.8868 90.4865 8.88666 90.4865 8.88652C90.8636 8.00473 90.9359 7.02099 90.6938 6.09406C90.4513 5.1658 89.905 4.33971 89.1334 3.7583C88.3607 3.1761 87.4103 2.87649 86.4392 2.9179C85.4683 2.95931 84.5474 3.33857 83.8268 3.98248L83.1595 4.57883V4.57908Z" fill="white" fill-opacity="0.6" stroke="black" stroke-width="4"/>
<defs>
<linearGradient id="paint0_linear_1232_1028" x1="-1.94211" y1="28.7628" x2="54.8259" y2="35.1518" gradientUnits="userSpaceOnUse">
<stop stop-color="#00011E"/>
<stop offset="1" stop-color="#246EFF"/>
</linearGradient>
</defs>
</svg>
