<svg width="88" height="70" viewBox="0 0 88 70" fill="none" xmlns="http://www.w3.org/2000/svg">
<path d="M12.3999 37.5526C5.55161 30.7043 5.5516 19.6011 12.3998 12.7528C19.2481 5.90457 30.3513 5.90458 37.1995 12.7528L56.4882 32.0415C63.3364 38.8897 63.3364 49.993 56.4882 56.8412C49.6399 63.6895 38.5367 63.6895 31.6885 56.8412L12.3999 37.5526Z" fill="url(#paint0_linear_111_187)"/>
<g filter="url(#filter0_b_111_187)">
<path d="M75.6001 37.1999C82.4484 30.3517 82.4484 19.2484 75.6002 12.4002C68.7519 5.55193 57.6487 5.55193 50.8005 12.4002L20.6657 42.5349C19.8076 43.3931 19.8076 44.7844 20.6657 45.6425L42.3579 67.3347C43.216 68.1928 44.6073 68.1928 45.4654 67.3347L75.6001 37.1999Z" fill="white" fill-opacity="0.6"/>
</g>
<path d="M73.6043 35.2038C79.3503 29.4578 79.3503 20.1417 73.6043 14.3957C67.8583 8.64975 58.5423 8.64976 52.7963 14.3957L23.1037 44.0884L43.9117 64.8964L73.6043 35.2038Z" stroke="black" stroke-width="5.64512"/>
<defs>
<filter id="filter0_b_111_187" x="14.3771" y="1.61887" width="72.0044" height="72.0045" filterUnits="userSpaceOnUse" color-interpolation-filters="sRGB">
<feFlood flood-opacity="0" result="BackgroundImageFix"/>
<feGaussianBlur in="BackgroundImageFix" stdDeviation="2.82256"/>
<feComposite in2="SourceAlpha" operator="in" result="effect1_backgroundBlur_111_187"/>
<feBlend mode="normal" in="SourceGraphic" in2="effect1_backgroundBlur_111_187" result="shape"/>
</filter>
<linearGradient id="paint0_linear_111_187" x1="21.5789" y1="48.3643" x2="46.567" y2="25.0854" gradientUnits="userSpaceOnUse">
<stop stop-color="#00011E"/>
<stop offset="1" stop-color="#246EFF"/>
</linearGradient>
</defs>
</svg>
