<svg width="84" height="63" viewBox="0 0 84 63" fill="none" xmlns="http://www.w3.org/2000/svg">
<path d="M74.5875 47.8549C74.5875 49.4364 73.7274 51.0118 72.0202 52.5126C70.314 54.0126 67.8127 55.389 64.6734 56.5563C58.399 58.8893 49.6934 60.3437 40.05 60.3437C30.4065 60.3437 21.7009 58.8893 15.4265 56.5563C12.2872 55.389 9.78592 54.0126 8.07967 52.5126C6.37247 51.0118 5.51245 49.4364 5.51245 47.8549C5.51245 46.2735 6.37247 44.6981 8.07967 43.1973C9.78592 41.6973 12.2872 40.3209 15.4265 39.1536C21.7009 36.8206 30.4065 35.3662 40.05 35.3662C49.6934 35.3662 58.399 36.8206 64.6734 39.1536C67.8127 40.3209 70.314 41.6973 72.0202 43.1973C73.7274 44.6981 74.5875 46.2735 74.5875 47.8549Z" fill="url(#paint0_linear_90_1101)" stroke="#26272F" stroke-width="1.125"/>
<path d="M40.05 60.9062C59.4352 60.9062 75.15 55.0629 75.15 47.8549C75.15 40.6469 59.4352 34.8037 40.05 34.8037C20.6648 34.8037 4.94995 40.6469 4.94995 47.8549C4.94995 55.0629 20.6648 60.9062 40.05 60.9062Z" stroke="black" stroke-width="3" stroke-miterlimit="10"/>
<path d="M81.9314 7.08211C81.9314 10.1214 79.4564 12.5956 76.3906 12.5956C73.3249 12.5956 70.8499 10.1214 70.8499 7.08211C70.8499 4.04278 73.3249 1.56863 76.3906 1.56863C79.4564 1.56863 81.9314 4.04278 81.9314 7.08211Z" fill="white" fill-opacity="0.6" stroke="black" stroke-width="3.13725"/>
<g filter="url(#filter0_b_90_1101)">
<path d="M39.3501 42C44.8729 42 49.3501 37.5228 49.3501 32C49.3501 26.4772 44.8729 22 39.3501 22C33.8273 22 29.3501 26.4772 29.3501 32C29.3501 37.5228 33.8273 42 39.3501 42Z" fill="white" fill-opacity="0.6"/>
</g>
<path d="M47.7815 32C47.7815 36.6565 44.0066 40.4314 39.3501 40.4314C34.6936 40.4314 30.9187 36.6565 30.9187 32C30.9187 27.3435 34.6936 23.5686 39.3501 23.5686C44.0066 23.5686 47.7815 27.3435 47.7815 32Z" stroke="black" stroke-width="3.13725"/>
<path d="M12.6501 16.0821C12.6501 19.1214 10.1751 21.5956 7.10938 21.5956C4.04362 21.5956 1.56863 19.1214 1.56863 16.0821C1.56863 13.0428 4.04362 10.5686 7.10938 10.5686C10.1751 10.5686 12.6501 13.0428 12.6501 16.0821Z" fill="white" fill-opacity="0.6" stroke="black" stroke-width="3.13725"/>
<path d="M15.0312 21.1406C15.0312 21.1406 27.625 29.9791 27.625 51.8972" stroke="black" stroke-width="3.13725" stroke-miterlimit="10"/>
<path d="M68.9197 11.332C68.9197 11.332 51 23.0762 51 52.2059" stroke="black" stroke-width="3.13725" stroke-miterlimit="10"/>
<defs>
<filter id="filter0_b_90_1101" x="25.3501" y="18" width="28" height="28" filterUnits="userSpaceOnUse" color-interpolation-filters="sRGB">
<feFlood flood-opacity="0" result="BackgroundImageFix"/>
<feGaussianBlur in="BackgroundImageFix" stdDeviation="2"/>
<feComposite in2="SourceAlpha" operator="in" result="effect1_backgroundBlur_90_1101"/>
<feBlend mode="normal" in="SourceGraphic" in2="effect1_backgroundBlur_90_1101" result="shape"/>
</filter>
<linearGradient id="paint0_linear_90_1101" x1="2.63917" y1="48.0628" x2="69.1332" y2="59.3201" gradientUnits="userSpaceOnUse">
<stop stop-color="#00011E"/>
<stop offset="1" stop-color="#246EFF"/>
</linearGradient>
</defs>
</svg>
