<svg width="200" height="200" viewBox="0 0 200 200" fill="none" xmlns="http://www.w3.org/2000/svg">
<g clip-path="url(#clip0_498_725)">
<path d="M134.75 169.226C134.75 170.853 133.725 172.532 131.568 174.174C129.422 175.808 126.27 177.311 122.308 178.587C114.393 181.136 103.411 182.726 91.2498 182.726C79.0884 182.726 68.107 181.136 60.1915 178.587C56.2296 177.311 53.0775 175.808 50.9319 174.174C48.7746 172.532 47.7497 170.853 47.7497 169.226C47.7497 167.598 48.7746 165.919 50.9319 164.277C53.0775 162.643 56.2296 161.14 60.1915 159.864C68.107 157.315 79.0884 155.726 91.2498 155.726C98.3677 155.726 105.085 156.27 111.028 157.231C118.208 158.398 124.211 160.171 128.398 162.316C130.493 163.389 132.098 164.537 133.171 165.719C134.24 166.896 134.75 168.07 134.75 169.226Z" fill="url(#paint0_linear_498_725)" stroke="#26272F" stroke-width="1.5"/>
<path d="M71.0672 181.226C72.6797 167.726 72.8147 128.426 72.8147 128.426C72.7022 128.013 72.5897 127.593 72.5072 127.181C72.4547 126.948 72.3947 126.686 72.3647 126.453C72.3647 126.453 71.3897 121.451 69.8072 115.001C68.1347 108.191 65.3822 101.658 61.6247 95.6283L59.5397 92.2383C56.8922 87.9933 58.4522 82.5483 63.0497 80.0883C67.6172 77.6283 73.4597 79.0758 76.0997 83.3508L85.9547 99.2283C86.1797 99.5658 86.6747 99.6408 86.9822 99.3858L129.86 62.6058C133.73 59.2908 139.797 59.5008 143.36 63.1233C146.892 66.7533 146.675 72.3708 142.775 75.6858L114.357 100.061C130.692 102.266 143.075 112.368 143.075 124.488C143.075 136.608 132.395 148.406 117.087 151.668C114.507 152.216 111.8 152.516 108.98 152.516L110.742 181.226" fill="white"/>
<path d="M71.0672 181.226C72.6797 167.726 72.8147 128.426 72.8147 128.426C72.7022 128.013 72.5897 127.593 72.5072 127.181C72.4547 126.948 72.3947 126.686 72.3647 126.453C72.3647 126.453 71.3897 121.451 69.8072 115.001C68.1347 108.191 65.3822 101.658 61.6247 95.6283L59.5397 92.2383C56.8922 87.9933 58.4522 82.5483 63.0497 80.0883C67.6172 77.6283 73.4597 79.0758 76.0997 83.3508L85.9547 99.2283C86.1797 99.5658 86.6747 99.6408 86.9822 99.3858L129.86 62.6058C133.73 59.2908 139.797 59.5008 143.36 63.1233C146.892 66.7533 146.675 72.3708 142.775 75.6858L114.357 100.061C130.692 102.266 143.075 112.368 143.075 124.488C143.075 136.608 132.395 148.406 117.087 151.668C114.507 152.216 111.8 152.516 108.98 152.516L110.742 181.226" stroke="#26272F" stroke-width="4.5" stroke-miterlimit="10"/>
<path d="M128.54 135.446C125.225 131.846 125.435 126.198 129.057 122.883L138.305 114.363C141.905 111.048 147.552 111.258 150.867 114.881C154.182 118.481 153.972 124.128 150.35 127.443L141.102 135.963C137.502 139.308 131.885 139.068 128.54 135.446Z" fill="white" stroke="#26272F" stroke-width="4.5" stroke-miterlimit="10"/>
<path d="M120.77 124.203C117.455 120.603 117.665 114.955 121.287 111.64L130.535 103.12C134.135 99.8055 139.782 100.015 143.097 103.638C146.412 107.238 146.202 112.885 142.58 116.2L133.332 124.72C129.732 128.035 124.115 127.803 120.77 124.203Z" fill="white" stroke="#26272F" stroke-width="4.5" stroke-miterlimit="10"/>
<path d="M111.987 113.321C108.672 109.721 108.882 104.073 112.505 100.758L121.752 92.2381C125.352 88.9231 131 89.1331 134.315 92.7556C137.63 96.3556 137.42 102.003 133.797 105.318L124.55 113.838C120.95 117.183 115.332 116.943 111.987 113.321Z" fill="white" stroke="#26272F" stroke-width="4.5" stroke-miterlimit="10"/>
<path d="M63.1471 79.8638C63.1471 79.8638 77.9071 71.1639 89.0371 103.564C89.0371 103.564 112.79 110.974 112.242 130.586" fill="white"/>
<path d="M63.1471 79.8638C63.1471 79.8638 77.9071 71.1639 89.0371 103.564C89.0371 103.564 112.79 110.974 112.242 130.586" stroke="#26272F" stroke-width="4.5" stroke-miterlimit="10"/>
<path d="M110.645 156.536C124.955 158.898 134.75 163.691 134.75 169.226C134.75 177.093 114.935 183.476 90.4997 183.476C66.0647 183.476 46.2497 177.093 46.2497 169.226C46.2497 163.968 55.0922 159.371 68.2547 156.903C69.5447 156.663 70.8722 156.438 72.2372 156.243" stroke="#26272F" stroke-width="4.5" stroke-miterlimit="10"/>
</g>
<path d="M90.3234 74.8366L88.5094 72.4471L98.0674 65.1913L96.2534 62.8018L86.6955 70.0576L84.8816 67.6681L82.4921 69.4821L78.8642 64.7031L81.2537 62.8892L79.4397 60.4997L93.7766 49.616L102.846 61.5634L100.457 63.3774L102.271 65.7669L90.3234 74.8366ZM87.271 65.8542L94.4395 60.4124L90.8116 55.6334L83.6431 61.0752L87.271 65.8542ZM107.625 57.9356L105.811 55.5461L103.422 57.36L97.98 50.1916L100.37 48.3776L98.5556 45.9882L110.503 36.9184L112.317 39.3079L114.706 37.494L120.148 44.6624L117.759 46.4764L119.573 48.8658L107.625 57.9356ZM108.201 53.7321L115.369 48.2903L109.927 41.1219L102.759 46.5637L108.201 53.7321ZM125.503 36.8311L116.433 24.8837L123.601 19.4419L129.043 26.6103L126.654 28.4243L130.282 33.2032L125.503 36.8311ZM129.131 41.6101L127.317 39.2206L132.096 35.5927L133.91 37.9822L129.131 41.6101Z" fill="#26272F"/>
<defs>
<linearGradient id="paint0_linear_498_725" x1="57.1404" y1="180.496" x2="61.51" y2="140.42" gradientUnits="userSpaceOnUse">
<stop stop-color="#00011E"/>
<stop offset="1" stop-color="#246EFF"/>
</linearGradient>
<clipPath id="clip0_498_725">
<rect width="111.465" height="127.725" fill="white" transform="translate(44 58.0005)"/>
</clipPath>
</defs>
</svg>
