<svg width="24" height="25" viewBox="0 0 24 25" fill="none" xmlns="http://www.w3.org/2000/svg">
<path fill-rule="evenodd" clip-rule="evenodd" d="M5.71967 6.21967C6.01256 5.92678 6.48744 5.92678 6.78033 6.21967L12 11.4393L17.2197 6.21967C17.5126 5.92678 17.9874 5.92678 18.2803 6.21967C18.5732 6.51256 18.5732 6.98744 18.2803 7.28033L13.0607 12.5L18.2803 17.7197C18.5732 18.0126 18.5732 18.4874 18.2803 18.7803C17.9874 19.0732 17.5126 19.0732 17.2197 18.7803L12 13.5607L6.78033 18.7803C6.48744 19.0732 6.01256 19.0732 5.71967 18.7803C5.42678 18.4874 5.42678 18.0126 5.71967 17.7197L10.9393 12.5L5.71967 7.28033C5.42678 6.98744 5.42678 6.51256 5.71967 6.21967Z" fill="#000"/>
</svg>
