<svg width="73" height="73" viewBox="0 0 73 73" fill="none" xmlns="http://www.w3.org/2000/svg">
<rect x="5" y="33" width="28" height="28" rx="4" transform="rotate(-90 5 33)" fill="#004AE4"/>
<rect x="40" y="68" width="28" height="28" rx="4" transform="rotate(-90 40 68)" fill="#004AE4"/>
<path d="M39.2944 21.5733C37.3504 20.4085 37.3504 17.5915 39.2944 16.4267L40.8567 15.4905C41.9904 14.8111 42.5459 13.4699 42.2247 12.1879L41.7819 10.4212C41.231 8.22292 43.2229 6.23105 45.4212 6.78193L47.1879 7.22466C48.4699 7.54593 49.8111 6.99037 50.4905 5.85668L51.4267 4.29439C52.5915 2.35044 55.4085 2.35044 56.5733 4.29439L57.5095 5.85668C58.1889 6.99037 59.5301 7.54593 60.8121 7.22466L62.5788 6.78193C64.7771 6.23105 66.769 8.22292 66.2181 10.4212L65.7753 12.1879C65.4541 13.4699 66.0096 14.8111 67.1433 15.4905L68.7056 16.4267C70.6496 17.5915 70.6496 20.4085 68.7056 21.5733L67.1433 22.5095C66.0096 23.1889 65.4541 24.5301 65.7753 25.8121L66.2181 27.5788C66.769 29.7771 64.7771 31.769 62.5788 31.2181L60.8121 30.7753C59.5301 30.4541 58.1889 31.0096 57.5095 32.1433L56.5733 33.7056C55.4085 35.6496 52.5915 35.6496 51.4267 33.7056L50.4905 32.1433C49.8111 31.0096 48.4699 30.4541 47.1879 30.7753L45.4212 31.2181C43.2229 31.769 41.231 29.7771 41.7819 27.5788L42.2247 25.8121C42.5459 24.5301 41.9904 23.1889 40.8567 22.5095L39.2944 21.5733Z" fill="#004AE4"/>
<path d="M4.29439 56.3688C2.35044 55.2039 2.35044 52.3869 4.29439 51.2221L5.85668 50.2859C6.99037 49.6065 7.54593 48.2653 7.22466 46.9833L6.78193 45.2166C6.23105 43.0183 8.22292 41.0265 10.4212 41.5773L12.1879 42.0201C13.4699 42.3413 14.8111 41.7858 15.4905 40.6521L16.4267 39.0898C17.5915 37.1459 20.4085 37.1459 21.5733 39.0898L22.5095 40.6521C23.1889 41.7858 24.5301 42.3413 25.8121 42.0201L27.5788 41.5773C29.7771 41.0265 31.769 43.0183 31.2181 45.2166L30.7753 46.9833C30.4541 48.2653 31.0096 49.6065 32.1433 50.2859L33.7056 51.2221C35.6496 52.3869 35.6496 55.2039 33.7056 56.3688L32.1433 57.3049C31.0096 57.9843 30.4541 59.3255 30.7753 60.6075L31.2181 62.3742C31.769 64.5725 29.7771 66.5644 27.5788 66.0135L25.8121 65.5707C24.5301 65.2495 23.1889 65.805 22.5095 66.9387L21.5733 68.501C20.4085 70.445 17.5915 70.445 16.4267 68.501L15.4905 66.9387C14.8111 65.805 13.4699 65.2495 12.1879 65.5707L10.4212 66.0135C8.22292 66.5644 6.23105 64.5725 6.78193 62.3742L7.22466 60.6075C7.54593 59.3255 6.99037 57.9843 5.85668 57.3049L4.29439 56.3688Z" fill="#004AE4"/>
</svg>
