<svg width="24" height="24" viewBox="0 0 24 24" fill="none" xmlns="http://www.w3.org/2000/svg">
<g clip-path="url(#clip0_554_2232)">
<path d="M10.7986 0.109712C7.03576 0.632041 3.234 2.858 1.30219 6.59473L5.35939 9.63568C6.2794 7.21881 8.53352 5.05488 11.6308 4.79226C15.0564 4.50154 17.0191 6.53659 17.0191 6.53659L20.4447 3.11286C19.2473 2.07886 15.688 -0.568637 10.7986 0.109712Z" fill="#E74A37"/>
<path d="M5.43522 14.4413C4.90836 13.0594 4.80459 11.6058 5.11092 10.4129C5.17778 10.1522 5.2606 9.89247 5.35939 9.63567L1.30218 6.59473C0.724428 7.71303 0.313319 8.96701 0.121734 10.3508C-0.281392 13.2658 0.363211 15.6294 1.34309 17.4483L5.43522 14.4403V14.4413Z" fill="#FFD109"/>
<path d="M16.3466 18.1079C14.8558 19.045 12.469 19.8629 9.53533 18.6825C7.46581 17.8491 6.10676 16.2046 5.43521 14.4419L1.34308 17.4499C2.38283 19.3803 3.80175 20.6963 4.74571 21.4027C6.99982 23.0899 12.5288 26.0485 19.4808 21.8611C20.0386 21.4735 20.1773 21.3368 20.4846 21.0568L16.3466 18.1089V18.1079Z" fill="#6EBE53"/>
<path d="M23.8044 9.79443L12.3173 9.82641L12.3293 14.4179H18.915C18.915 14.7086 18.5827 16.2911 17.3185 17.39C17.059 17.6158 16.7318 17.8658 16.3456 18.1091L20.4627 21.0754C25.2154 16.7776 23.8044 9.7954 23.8044 9.7954V9.79443Z" fill="#6B8CFF"/>
</g>
<defs>
<clipPath id="clip0_554_2232">
<rect width="24" height="24" fill="white"/>
</clipPath>
</defs>
</svg>
