<svg width="33" height="36" viewBox="0 0 33 36" fill="none" xmlns="http://www.w3.org/2000/svg">
<path d="M21.7617 21.4231C21.7617 29.0029 16.8948 35.0528 10.9954 35.0528C5.0959 35.0528 0.22907 29.0029 0.22907 21.4231C0.22907 13.8434 5.0959 7.79346 10.9954 7.79346C16.8948 7.79346 21.7617 13.8434 21.7617 21.4231Z" fill="url(#paint0_linear_133_184)"/>
<path d="M21.7617 21.4231C21.7617 29.0029 16.8948 35.0528 10.9954 35.0528C5.0959 35.0528 0.22907 29.0029 0.22907 21.4231C0.22907 13.8434 5.0959 7.79346 10.9954 7.79346C16.8948 7.79346 21.7617 13.8434 21.7617 21.4231Z" fill="#727488"/>
<path d="M21.7617 21.4231C21.7617 29.0029 16.8948 35.0528 10.9954 35.0528C5.0959 35.0528 0.22907 29.0029 0.22907 21.4231C0.22907 13.8434 5.0959 7.79346 10.9954 7.79346C16.8948 7.79346 21.7617 13.8434 21.7617 21.4231Z" stroke="#727488" stroke-width="0.45814"/>
<path d="M0.844701 18.4109C0.844701 18.4109 0.386567 23.3359 0.844707 26.5429C1.12188 28.4831 4.81048 32.8423 4.81048 32.8423L28.7483 19.5562L27.832 11.9969L21.0029 10.6225L7.48773 17.4076L5.4261 18.4109H0.844701Z" fill="white"/>
<path d="M30.125 15.2887C30.125 15.2887 31.2978 15.0802 31.8682 16.2989C32.4386 17.5175 30.9726 19.4211 30.9726 19.4211C30.9726 19.4211 29.14 21.847 26.3728 23.5764C26.3728 23.5764 24.7419 27.7409 19.7985 28.9184C16.4976 29.7041 14.6696 29.1726 13.7854 29.0352C13.3158 28.9619 12.8348 29.0352 12.4041 29.2391L4.81047 32.9912" fill="white"/>
<path d="M30.125 15.2887C30.125 15.2887 31.2978 15.0802 31.8682 16.2989C32.4386 17.5175 30.9726 19.4211 30.9726 19.4211C30.9726 19.4211 29.14 21.847 26.3728 23.5764C26.3728 23.5764 24.7419 27.7409 19.7985 28.9184C16.4976 29.7041 14.6696 29.1726 13.7854 29.0352C13.3158 28.9619 12.8348 29.0352 12.4041 29.2391L4.81047 32.9912" stroke="#727488" stroke-width="0.916281" stroke-miterlimit="10"/>
<path d="M28.691 8.30425C29.2339 7.59414 29.9922 6.82675 31.1123 7.4315C32.0126 7.91712 32.2851 9.06477 31.543 11.7014C31.1856 12.975 30.6862 14.283 28.9934 16.6447C28.0817 17.9183 27.0692 19.0408 26.2835 19.8471" fill="white"/>
<path d="M28.691 8.30425C29.2339 7.59414 29.9922 6.82675 31.1123 7.4315C32.0126 7.91712 32.2851 9.06477 31.543 11.7014C31.1856 12.975 30.6862 14.283 28.9934 16.6447C28.0817 17.9183 27.0692 19.0408 26.2835 19.8471" stroke="#727488" stroke-width="0.916281" stroke-miterlimit="10"/>
<path d="M25.0259 3.70917C25.4543 2.92346 26.0934 2.0759 27.4586 2.57069C28.7231 3.03112 29.1056 4.13524 28.9041 6.92302C28.8056 8.26995 28.565 9.66499 27.2639 12.2649C25.8643 15.0665 23.8851 17.2953 23.8851 17.2953" fill="white"/>
<path d="M25.0259 3.70917C25.4543 2.92346 26.0934 2.0759 27.4586 2.57069C28.7231 3.03112 29.1056 4.13524 28.9041 6.92302C28.8056 8.26995 28.565 9.66499 27.2639 12.2649C25.8643 15.0665 23.8851 17.2953 23.8851 17.2953" stroke="#727488" stroke-width="0.916281" stroke-miterlimit="10"/>
<path d="M19.203 5.99298C19.203 5.99298 20.1857 3.61523 20.4903 2.77454C20.795 1.93386 21.6105 0.685425 23.0101 1.07255C24.3708 1.45052 24.8747 2.37138 25.0946 5.15687C25.2 6.50381 25.1702 7.91946 24.2769 10.6843C23.3148 13.6645 21.6929 16.166 21.6929 16.166" fill="white"/>
<path d="M19.203 5.99298C19.203 5.99298 20.1857 3.61523 20.4903 2.77454C20.795 1.93386 21.6105 0.685425 23.0101 1.07255C24.3708 1.45052 24.8747 2.37138 25.0946 5.15687C25.2 6.50381 25.1702 7.91946 24.2769 10.6843C23.3148 13.6645 21.6929 16.166 21.6929 16.166" stroke="#727488" stroke-width="0.916281" stroke-miterlimit="10"/>
<path d="M0.458145 18.3307L5.28694 18.2895C6.07724 18.2826 6.824 17.9322 7.33025 17.3274C8.13658 16.3699 9.35294 14.9565 9.96456 14.4113C10.9083 13.5707 14.1061 11.5159 14.1061 11.5159C14.1061 11.5159 14.814 8.9297 16.3098 7.08339C16.7542 6.53362 17.8835 5.95866 18.4951 5.97469C19.2007 5.99302 19.6107 6.37557 19.8787 6.6619C20.1467 6.94824 21.2646 8.12337 20.779 10.4897C20.6713 11.0165 20.0162 12.5902 19.3587 13.4218C19.1251 13.715 18.2706 14.4526 18.2706 14.4526C18.2706 14.4526 19.2831 16.2462 18.589 18.4911C17.895 20.736 16.4427 22.1104 15.5081 22.722" fill="white"/>
<path d="M0.458145 18.3307L5.28694 18.2895C6.07724 18.2826 6.824 17.9322 7.33025 17.3274C8.13658 16.3699 9.35294 14.9565 9.96456 14.4113C10.9083 13.5707 14.1061 11.5159 14.1061 11.5159C14.1061 11.5159 14.814 8.9297 16.3098 7.08339C16.7542 6.53362 17.8835 5.95866 18.4951 5.97469C19.2007 5.99302 19.6107 6.37557 19.8787 6.6619C20.1467 6.94824 21.2646 8.12337 20.779 10.4897C20.6713 11.0165 20.0162 12.5902 19.3587 13.4218C19.1251 13.715 18.2706 14.4526 18.2706 14.4526C18.2706 14.4526 19.2831 16.2462 18.589 18.4911C17.895 20.736 16.4427 22.1104 15.5081 22.722" stroke="#727488" stroke-width="0.916281" stroke-miterlimit="10"/>
<path d="M20.7858 28.8382C18.8433 32.7553 15.3912 35.3621 11.4535 35.3621C5.38086 35.3621 0.458145 29.1566 0.458145 21.5033C0.458145 13.8501 5.38086 7.64459 11.4535 7.64459C12.9722 7.64459 14.4177 8.03172 15.7325 8.73268" stroke="#727488" stroke-width="0.916281" stroke-miterlimit="10"/>
<defs>
<linearGradient id="paint0_linear_133_184" x1="2.51977" y1="32.3842" x2="16.7574" y2="-0.978632" gradientUnits="userSpaceOnUse">
<stop stop-color="#00011E"/>
<stop offset="1" stop-color="#246EFF"/>
</linearGradient>
</defs>
</svg>
