<svg width="141" height="143" viewBox="0 0 141 143" fill="none" xmlns="http://www.w3.org/2000/svg">
<path d="M4.00007 79.5C4.00007 79.5 0.000123024 96 6.50006 114C13 132 21.5001 138.5 21.5001 138.5L74.5001 113L126 86.5L120.5 50.0068L90.6875 44.0068L31.6875 73.6268L22.6875 78.0068L4.00007 79.5Z" fill="white"/>
<path d="M130.51 64.377C130.51 64.377 135.63 63.467 138.12 68.787C140.61 74.107 134.21 82.417 134.21 82.417C134.21 82.417 126.21 93.007 114.13 100.557C114.13 100.557 107.01 118.737 85.43 123.877C71.02 127.307 63.04 124.987 59.18 124.387C57.13 124.067 55.03 124.387 53.15 125.277L20.5 141" fill="white"/>
<path d="M130.51 64.377C130.51 64.377 135.63 63.467 138.12 68.787C140.61 74.107 134.21 82.417 134.21 82.417C134.21 82.417 126.21 93.007 114.13 100.557C114.13 100.557 107.01 118.737 85.43 123.877C71.02 127.307 63.04 124.987 59.18 124.387C57.13 124.067 55.03 124.387 53.15 125.277L20.5 141" stroke="black" stroke-width="4" stroke-miterlimit="10"/>
<path d="M124.25 33.8867C126.62 30.7867 129.93 27.4367 134.82 30.0767C138.75 32.1967 139.94 37.2067 136.7 48.7167C135.14 54.2767 132.96 59.9867 125.57 70.2967C121.59 75.8567 117.17 80.7566 113.74 84.2766" fill="white"/>
<path d="M124.25 33.8867C126.62 30.7867 129.93 27.4367 134.82 30.0767C138.75 32.1967 139.94 37.2067 136.7 48.7167C135.14 54.2767 132.96 59.9867 125.57 70.2967C121.59 75.8567 117.17 80.7566 113.74 84.2766" stroke="black" stroke-width="4" stroke-miterlimit="10"/>
<path d="M108.25 13.8268C110.12 10.3968 112.91 6.6968 118.87 8.8568C124.39 10.8668 126.06 15.6868 125.18 27.8568C124.75 33.7368 123.7 39.8268 118.02 51.1768C111.91 63.4068 103.27 73.1368 103.27 73.1368" fill="white"/>
<path d="M108.25 13.8268C110.12 10.3968 112.91 6.6968 118.87 8.8568C124.39 10.8668 126.06 15.6868 125.18 27.8568C124.75 33.7368 123.7 39.8268 118.02 51.1768C111.91 63.4068 103.27 73.1368 103.27 73.1368" stroke="black" stroke-width="4" stroke-miterlimit="10"/>
<path d="M82.8301 23.7967C82.8301 23.7967 87.1201 13.4167 88.4501 9.74673C89.7801 6.07673 93.3401 0.62673 99.4501 2.31673C105.39 3.96673 107.59 7.98673 108.55 20.1467C109.01 26.0267 108.88 32.2067 104.98 44.2767C100.78 57.2867 93.7001 68.2067 93.7001 68.2067" fill="white"/>
<path d="M82.8301 23.7967C82.8301 23.7967 87.1201 13.4167 88.4501 9.74673C89.7801 6.07673 93.3401 0.62673 99.4501 2.31673C105.39 3.96673 107.59 7.98673 108.55 20.1467C109.01 26.0267 108.88 32.2067 104.98 44.2767C100.78 57.2867 93.7001 68.2067 93.7001 68.2067" stroke="black" stroke-width="4" stroke-miterlimit="10"/>
<path d="M1 77.6568L22.08 77.4768C25.53 77.4468 28.79 75.9168 31 73.2768C34.52 69.0968 39.83 62.9268 42.5 60.5468C46.62 56.8768 60.58 47.9068 60.58 47.9068C60.58 47.9068 63.67 36.6168 70.2 28.5568C72.14 26.1568 77.07 23.6468 79.74 23.7168C82.82 23.7968 84.61 25.4668 85.78 26.7168C86.95 27.9668 91.83 33.0968 89.71 43.4268C89.24 45.7268 86.38 52.5968 83.51 56.2268C82.49 57.5068 78.76 60.7268 78.76 60.7268C78.76 60.7268 83.18 68.5568 80.15 78.3568C77.12 88.1568 70.78 94.1568 66.7 96.8268" fill="white"/>
<path d="M1 77.6568L22.08 77.4768C25.53 77.4468 28.79 75.9168 31 73.2768C34.52 69.0968 39.83 62.9268 42.5 60.5468C46.62 56.8768 60.58 47.9068 60.58 47.9068C60.58 47.9068 63.67 36.6168 70.2 28.5568C72.14 26.1568 77.07 23.6468 79.74 23.7168C82.82 23.7968 84.61 25.4668 85.78 26.7168C86.95 27.9668 91.83 33.0968 89.71 43.4268C89.24 45.7268 86.38 52.5968 83.51 56.2268C82.49 57.5068 78.76 60.7268 78.76 60.7268C78.76 60.7268 83.18 68.5568 80.15 78.3568C77.12 88.1568 70.78 94.1568 66.7 96.8268" stroke="black" stroke-width="4" stroke-miterlimit="10"/>
</svg>
