<svg width="107" height="116" viewBox="0 0 107 116" fill="none" xmlns="http://www.w3.org/2000/svg">
<path d="M38 113.95C57.8823 113.95 74 93.6346 74 68.5747C74 43.5148 57.8823 23.1997 38 23.1997C18.1178 23.1997 2 43.5148 2 68.5747C2 93.6346 18.1178 113.95 38 113.95Z" fill="url(#paint0_linear_498_921)"/>
<path d="M38 113.95C57.8823 113.95 74 93.6346 74 68.5747C74 43.5148 57.8823 23.1997 38 23.1997C18.1178 23.1997 2 43.5148 2 68.5747C2 93.6346 18.1178 113.95 38 113.95Z" stroke="black" stroke-width="3" stroke-miterlimit="10"/>
<path d="M4.24999 59.8318C4.24999 59.8318 1.25003 72.2068 6.12499 85.7068C10.9999 99.2068 17.375 104.082 17.375 104.082L57.125 84.9568L95.75 65.0818L91.625 37.7119L69.2656 33.2119L25.0156 55.4269L18.2656 58.7119L4.24999 59.8318Z" fill="white"/>
<path d="M99.1325 48.4897C99.1325 48.4897 102.973 47.8072 104.84 51.7972C106.708 55.7872 101.908 62.0197 101.908 62.0197C101.908 62.0197 95.9075 69.9622 86.8475 75.6247C86.8475 75.6247 81.5075 89.2597 65.3225 93.1147C54.515 95.6872 48.53 93.9472 45.635 93.4972C44.0975 93.2572 42.5225 93.4972 41.1125 94.1647L16.625 105.957" fill="white"/>
<path d="M99.1325 48.4897C99.1325 48.4897 102.973 47.8072 104.84 51.7972C106.708 55.7872 101.908 62.0197 101.908 62.0197C101.908 62.0197 95.9075 69.9622 86.8475 75.6247C86.8475 75.6247 81.5075 89.2597 65.3225 93.1147C54.515 95.6872 48.53 93.9472 45.635 93.4972C44.0975 93.2572 42.5225 93.4972 41.1125 94.1647L16.625 105.957" stroke="black" stroke-width="3" stroke-miterlimit="10"/>
<path d="M94.4377 25.6223C96.2152 23.2973 98.6977 20.7848 102.365 22.7648C105.313 24.3548 106.205 28.1123 103.775 36.7448C102.605 40.9148 100.97 45.1973 95.4277 52.9298C92.4427 57.0998 89.1277 60.7748 86.5552 63.4148" fill="white"/>
<path d="M94.4377 25.6223C96.2152 23.2973 98.6977 20.7848 102.365 22.7648C105.313 24.3548 106.205 28.1123 103.775 36.7448C102.605 40.9148 100.97 45.1973 95.4277 52.9298C92.4427 57.0998 89.1277 60.7748 86.5552 63.4148" stroke="black" stroke-width="3" stroke-miterlimit="10"/>
<path d="M82.4372 10.577C83.8397 8.00451 85.9322 5.22951 90.4022 6.84951C94.5422 8.35701 95.7947 11.972 95.1347 21.0995C94.8122 25.5095 94.0247 30.077 89.7647 38.5895C85.1822 47.762 78.7021 55.0595 78.7021 55.0595" fill="white"/>
<path d="M82.4372 10.577C83.8397 8.00451 85.9322 5.22951 90.4022 6.84951C94.5422 8.35701 95.7947 11.972 95.1347 21.0995C94.8122 25.5095 94.0247 30.077 89.7647 38.5895C85.1822 47.762 78.7021 55.0595 78.7021 55.0595" stroke="black" stroke-width="3" stroke-miterlimit="10"/>
<path d="M63.3726 18.0546C63.3726 18.0546 66.5901 10.2696 67.5876 7.51708C68.5851 4.76458 71.2551 0.677079 75.8376 1.94458C80.2926 3.18208 81.9426 6.19708 82.6626 15.3171C83.0076 19.7271 82.9101 24.3621 79.9851 33.4146C76.8351 43.1721 71.5251 51.3621 71.5251 51.3621" fill="white"/>
<path d="M63.3726 18.0546C63.3726 18.0546 66.5901 10.2696 67.5876 7.51708C68.5851 4.76458 71.2551 0.677079 75.8376 1.94458C80.2926 3.18208 81.9426 6.19708 82.6626 15.3171C83.0076 19.7271 82.9101 24.3621 79.9851 33.4146C76.8351 43.1721 71.5251 51.3621 71.5251 51.3621" stroke="black" stroke-width="3" stroke-miterlimit="10"/>
<path d="M2 58.4497L17.81 58.3147C20.3975 58.2922 22.8425 57.1447 24.5 55.1647C27.14 52.0297 31.1225 47.4022 33.125 45.6172C36.215 42.8647 46.685 36.1372 46.685 36.1372C46.685 36.1372 49.0025 27.6697 53.9 21.6247C55.355 19.8247 59.0525 17.9422 61.055 17.9947C63.365 18.0547 64.7075 19.3072 65.585 20.2447C66.4625 21.1822 70.1226 25.0297 68.5325 32.7772C68.18 34.5022 66.035 39.6547 63.8825 42.3772C63.1175 43.3372 60.32 45.7522 60.32 45.7522C60.32 45.7522 63.635 51.6247 61.3625 58.9747C59.09 66.3247 54.335 70.8247 51.275 72.8272" fill="white"/>
<path d="M2 58.4497L17.81 58.3147C20.3975 58.2922 22.8425 57.1447 24.5 55.1647C27.14 52.0297 31.1225 47.4022 33.125 45.6172C36.215 42.8647 46.685 36.1372 46.685 36.1372C46.685 36.1372 49.0025 27.6697 53.9 21.6247C55.355 19.8247 59.0525 17.9422 61.055 17.9947C63.365 18.0547 64.7075 19.3072 65.585 20.2447C66.4625 21.1822 70.1225 25.0297 68.5325 32.7772C68.18 34.5022 66.035 39.6547 63.8825 42.3772C63.1175 43.3372 60.32 45.7522 60.32 45.7522C60.32 45.7522 63.635 51.6247 61.3625 58.9747C59.09 66.3247 54.335 70.8247 51.275 72.8272" stroke="black" stroke-width="3" stroke-miterlimit="10"/>
<defs>
<linearGradient id="paint0_linear_498_921" x1="10.25" y1="104.462" x2="56.8655" y2="-4.77109" gradientUnits="userSpaceOnUse">
<stop stop-color="#00011E"/>
<stop offset="1" stop-color="#246EFF"/>
</linearGradient>
</defs>
</svg>
