<svg width="200" height="200" viewBox="0 0 200 200" fill="none" xmlns="http://www.w3.org/2000/svg">
<g clip-path="url(#clip0_397_658)">
<path d="M132.76 44.2505H66.835C60.394 44.2505 55.1725 49.472 55.1725 55.913V112.838C55.1725 119.279 60.394 124.501 66.835 124.501H132.76C139.201 124.501 144.423 119.279 144.423 112.838V55.913C144.423 49.472 139.201 44.2505 132.76 44.2505Z" fill="#B8DEEA" stroke="black" stroke-width="4.5" stroke-miterlimit="10"/>
<g clip-path="url(#clip1_397_658)">
<path d="M80 93.0699L100.771 61H109.597V92.807H116.026V98.8416H109.597V107.994H102.849V98.8416H80V93.0637V93.0699ZM102.849 92.807V69.5011H102.329L87.5308 92.4189V92.807H102.849Z" fill="black"/>
</g>
<path d="M151.533 158.566L151.529 158.825C151.396 160.686 150.085 162.542 147.588 164.306C144.987 166.142 141.2 167.801 136.479 169.185C127.044 171.951 114.003 173.58 99.602 173.401L99.6019 173.401C85.2006 173.225 72.2068 171.274 62.8459 168.278C58.162 166.778 54.4193 165.027 51.8665 163.128C49.3012 161.22 48.0378 159.243 48.0625 157.298C48.0872 155.351 49.4012 153.403 52.0146 151.558C54.6153 149.722 58.4021 148.063 63.1233 146.679C72.5587 143.913 85.5992 142.284 100.001 142.463L100.001 142.463C108.434 142.568 116.385 143.278 123.405 144.451C131.895 145.871 139.004 147.962 143.964 150.457C146.445 151.705 148.362 153.041 149.646 154.422C150.927 155.8 151.551 157.188 151.533 158.566Z" fill="url(#paint0_linear_397_658)" stroke="#26272F" stroke-width="1.125"/>
<path d="M84.0475 171.578V124.328H115.548V171.578" fill="white"/>
<path d="M84.0475 171.578V124.328H115.548V171.578" stroke="black" stroke-width="4.5" stroke-miterlimit="10"/>
<path d="M116.905 142.216C119.178 142.486 121.383 142.793 123.505 143.146C140.545 145.996 152.185 151.561 152.103 157.823C151.99 166.681 128.478 173.573 99.595 173.213C70.7125 172.861 47.3875 165.391 47.5 156.541C47.59 149.513 62.425 143.723 82.9825 141.811" stroke="black" stroke-width="3" stroke-miterlimit="10"/>
</g>
<defs>
<linearGradient id="paint0_linear_397_658" x1="100" y1="174" x2="99.9991" y2="142" gradientUnits="userSpaceOnUse">
<stop stop-color="#00011E"/>
<stop offset="1" stop-color="#246EFF"/>
</linearGradient>
<clipPath id="clip0_397_658">
<rect width="107.602" height="132.728" fill="white" transform="translate(46 42)"/>
</clipPath>
<clipPath id="clip1_397_658">
<rect width="36.0262" height="47" fill="white" transform="translate(80 61)"/>
</clipPath>
</defs>
</svg>
