<svg width="24" height="24" viewBox="0 0 24 24" fill="none" xmlns="http://www.w3.org/2000/svg">
<path d="M8.5 11C7.67157 11 7 10.3284 7 9.5C7 8.67157 7.67157 8 8.5 8C9.32843 8 10 8.67157 10 9.5C10 10.3284 9.32843 11 8.5 11Z" fill="#DBDCDD"/>
<path d="M15.5 11C14.6716 11 14 10.3284 14 9.5C14 8.67157 14.6716 8 15.5 8C16.3284 8 17 8.67157 17 9.5C17 10.3284 16.3284 11 15.5 11Z" fill="#DBDCDD"/>
<path d="M12 16C13.48 16 14.75 15.19 15.45 14H17.12C16.32 16.05 14.33 17.5 12 17.5C9.67 17.5 7.68 16.05 6.88 14H8.55C9.24 15.19 10.52 16 12 16ZM12.01 2C17.53 2 22 6.48 22 12C22 17.52 17.53 22 12.01 22C6.48 22 2 17.52 2 12C2 6.48 6.48 2 12.01 2ZM12 20C16.42 20 20 16.42 20 12C20 7.58 16.42 4 12 4C7.58 4 4 7.58 4 12C4 16.42 7.58 20 12 20Z" fill="#DBDCDD"/>
</svg>
