<svg width="200" height="200" viewBox="0 0 200 200" fill="none" xmlns="http://www.w3.org/2000/svg">
<path d="M132.76 46.2505H66.835C60.394 46.2505 55.1725 51.472 55.1725 57.913V114.838C55.1725 121.279 60.394 126.501 66.835 126.501H132.76C139.201 126.501 144.423 121.279 144.423 114.838V57.913C144.423 51.472 139.201 46.2505 132.76 46.2505Z" fill="#EACAB8" stroke="black" stroke-width="4.5" stroke-miterlimit="10"/>
<path d="M151.533 160.566L151.529 160.825C151.396 162.686 150.085 164.542 147.588 166.306C144.987 168.142 141.2 169.801 136.479 171.185C127.044 173.951 114.003 175.58 99.602 175.401L99.6019 175.401C85.2006 175.225 72.2068 173.274 62.8459 170.278C58.162 168.778 54.4193 167.027 51.8665 165.128C49.3012 163.22 48.0378 161.243 48.0625 159.298C48.0872 157.351 49.4012 155.403 52.0146 153.558C54.6153 151.722 58.4021 150.063 63.1233 148.679C72.5587 145.913 85.5992 144.284 100.001 144.463L100.001 144.463C108.434 144.568 116.385 145.278 123.405 146.451C131.895 147.871 139.004 149.962 143.964 152.457C146.445 153.705 148.362 155.041 149.646 156.422C150.927 157.8 151.551 159.188 151.533 160.566Z" fill="url(#paint0_linear_386_798)" stroke="#26272F" stroke-width="1.125"/>
<path d="M84.0475 173.578V126.328H115.548V173.578" fill="white"/>
<path d="M84.0475 173.578V126.328H115.548V173.578" stroke="black" stroke-width="4.5" stroke-miterlimit="10"/>
<path d="M116.905 144.216C119.178 144.486 121.383 144.793 123.505 145.146C140.545 147.996 152.185 153.561 152.103 159.823C151.99 168.681 128.478 175.573 99.595 175.213C70.7125 174.861 47.3875 167.391 47.5 158.541C47.59 151.513 62.425 145.723 82.9825 143.811" stroke="black" stroke-width="3" stroke-miterlimit="10"/>
<path d="M84.0004 104.881L100.075 88.6768C105.163 83.3908 107.695 80.4451 107.695 76.3818C107.695 71.8059 103.984 68.8912 99.1113 68.8912C93.955 68.8912 90.6883 72.1579 90.6574 77.0858H84.0004C83.9387 68.601 90.4042 63 99.241 63C108.078 63 114.352 68.6689 114.42 76.1904C114.358 81.3776 111.925 85.5089 103.212 94.0554L93.8006 103.596V103.979H115.186V110H84.0004V104.875V104.881Z" fill="black"/>
<defs>
<linearGradient id="paint0_linear_386_798" x1="100" y1="176" x2="99.9991" y2="144" gradientUnits="userSpaceOnUse">
<stop stop-color="#00011E"/>
<stop offset="1" stop-color="#246EFF"/>
</linearGradient>
</defs>
</svg>
