<svg width="167" height="122" viewBox="0 0 167 122" fill="none" xmlns="http://www.w3.org/2000/svg">
<path d="M80.0999 121.812C118.87 121.812 150.3 110.126 150.3 95.7099C150.3 81.2939 118.87 69.6074 80.0999 69.6074C41.3295 69.6074 9.8999 81.2939 9.8999 95.7099C9.8999 110.126 41.3295 121.812 80.0999 121.812Z" fill="url(#paint0_linear_361_669)"/>
<path d="M163.863 14.1642C163.863 20.2429 158.913 25.1912 152.781 25.1912C146.65 25.1912 141.7 20.2429 141.7 14.1642C141.7 8.08556 146.65 3.13726 152.781 3.13726C158.913 3.13726 163.863 8.08556 163.863 14.1642Z" fill="white" fill-opacity="0.6" stroke="#26272F" stroke-width="6.27451"/>
<g filter="url(#filter0_b_361_669)">
<path d="M78.7002 84C89.7459 84 98.7002 75.0457 98.7002 64C98.7002 52.9543 89.7459 44 78.7002 44C67.6545 44 58.7002 52.9543 58.7002 64C58.7002 75.0457 67.6545 84 78.7002 84Z" fill="white" fill-opacity="0.6"/>
</g>
<path d="M95.5629 64C95.5629 73.3131 88.0132 80.8628 78.7002 80.8628C69.3872 80.8628 61.8375 73.3131 61.8375 64C61.8375 54.687 69.3872 47.1373 78.7002 47.1373C88.0132 47.1373 95.5629 54.687 95.5629 64Z" stroke="#26272F" stroke-width="6.27451"/>
<path d="M25.3002 32.1642C25.3002 38.2429 20.3503 43.1912 14.2188 43.1912C8.08724 43.1912 3.13726 38.2429 3.13726 32.1642C3.13726 26.0856 8.08724 21.1373 14.2188 21.1373C20.3503 21.1373 25.3002 26.0856 25.3002 32.1642Z" fill="white" fill-opacity="0.6" stroke="#26272F" stroke-width="6.27451"/>
<path d="M30.0625 42.2812C30.0625 42.2812 55.25 59.9582 55.25 103.795" stroke="#26272F" stroke-width="6.27451" stroke-miterlimit="10"/>
<path d="M137.839 22.6641C137.839 22.6641 102 46.1524 102 104.412" stroke="#26272F" stroke-width="6.27451" stroke-miterlimit="10"/>
<defs>
<filter id="filter0_b_361_669" x="50.7002" y="36" width="56" height="56" filterUnits="userSpaceOnUse" color-interpolation-filters="sRGB">
<feFlood flood-opacity="0" result="BackgroundImageFix"/>
<feGaussianBlur in="BackgroundImageFix" stdDeviation="4"/>
<feComposite in2="SourceAlpha" operator="in" result="effect1_backgroundBlur_361_669"/>
<feBlend mode="normal" in="SourceGraphic" in2="effect1_backgroundBlur_361_669" result="shape"/>
</filter>
<linearGradient id="paint0_linear_361_669" x1="43" y1="122" x2="134.938" y2="89.8258" gradientUnits="userSpaceOnUse">
<stop stop-color="#0053CF"/>
<stop offset="1" stop-color="#246EFF" stop-opacity="0.29"/>
</linearGradient>
</defs>
</svg>
