<svg width="200" height="200" viewBox="0 0 200 200" fill="none" xmlns="http://www.w3.org/2000/svg">
<path d="M132.414 46.2559H66.1262C59.6497 46.2559 54.3994 51.4781 54.3994 57.92V114.853C54.3994 121.295 59.6497 126.517 66.1262 126.517H132.414C138.891 126.517 144.141 121.295 144.141 114.853V57.92C144.141 51.4781 138.891 46.2559 132.414 46.2559Z" fill="#E7C5ED" stroke="black" stroke-width="4.5" stroke-miterlimit="10"/>
<path d="M151.294 160.587L151.29 160.846C151.156 162.706 149.839 164.563 147.327 166.327C144.712 168.163 140.903 169.823 136.156 171.207C126.668 173.973 113.555 175.603 99.0737 175.424L99.0735 175.424C84.5924 175.248 71.5264 173.297 62.1133 170.3C57.4032 168.8 53.6394 167.048 51.0722 165.149C48.4919 163.24 47.2223 161.263 47.2471 159.319C47.2719 157.372 48.5924 155.425 51.2212 153.579C53.8367 151.742 57.6448 150.082 62.3923 148.698C71.8804 145.932 84.9934 144.302 99.4745 144.482L99.4745 144.482C107.955 144.586 115.95 145.297 123.009 146.469C131.546 147.89 138.695 149.981 143.683 152.477C146.178 153.726 148.105 155.062 149.397 156.443C150.686 157.821 151.312 159.21 151.294 160.587Z" fill="url(#paint0_linear_386_774)" stroke="#26272F" stroke-width="1.125"/>
<path d="M83.3857 98.2684H90.2318C90.6142 102.208 94.3887 105.086 99.0576 105.123C104.689 105.092 108.716 101.023 108.716 95.5143C108.716 90.0059 104.559 85.782 98.7369 85.714C95.0302 85.714 92.1807 86.9615 90.6142 89.8144H83.9655L86.9691 64.0078H113.194V70.0287H92.7913L91.2556 83.0278H91.7058C93.6239 81.169 96.8866 79.9216 100.402 79.8907C109.135 79.9216 115.562 86.3933 115.562 95.3228C115.562 104.252 108.716 111.014 99.0638 111.014C90.2996 111.014 83.7126 105.666 83.3919 98.2684H83.3857Z" fill="black"/>
<path d="M83.4335 173.601V126.344H115.107V173.601" fill="white"/>
<path d="M83.4335 173.601V126.344H115.107V173.601" stroke="black" stroke-width="4.5" stroke-miterlimit="10"/>
<path d="M116.472 144.234C118.757 144.504 120.974 144.812 123.108 145.164C140.242 148.015 151.946 153.58 151.864 159.844C151.75 168.703 128.108 175.596 99.0667 175.236C70.025 174.883 46.5715 167.412 46.6846 158.561C46.7751 151.533 61.6919 145.742 82.3627 143.829" stroke="black" stroke-width="3" stroke-miterlimit="10"/>
<path d="M92.009 23.0404L92.0031 20.5404L94.5031 20.5347L94.4973 18.0347L89.4973 18.0462L89.4914 15.5462L94.4914 15.5347L94.4856 13.0347L91.9856 13.0405L91.9797 10.5405L96.9797 10.5289L96.9856 13.0289L99.4856 13.0231L99.4797 10.5231L104.48 10.5116L104.486 13.0116L101.986 13.0173L101.991 15.5173L106.991 15.5058L106.997 18.0058L101.997 18.0173L102.003 20.5173L104.503 20.5115L104.509 23.0115L99.5089 23.0231L99.5031 20.5231L97.0031 20.5289L97.0089 23.0289L92.009 23.0404Z" fill="#26272F"/>
<path d="M169.433 101.051L169.427 98.5512L171.927 98.5454L171.922 96.0454L166.922 96.057L166.916 93.557L171.916 93.5454L171.91 91.0454L169.41 91.0512L169.404 88.5512L174.404 88.5396L174.41 91.0396L176.91 91.0339L176.904 88.5339L181.904 88.5223L181.91 91.0223L179.41 91.0281L179.416 93.5281L184.416 93.5165L184.422 96.0165L179.422 96.0281L179.427 98.5281L181.927 98.5223L181.933 101.022L176.933 101.034L176.927 98.5338L174.427 98.5396L174.433 101.04L169.433 101.051Z" fill="#26272F"/>
<path d="M15.59 125.055L15.5842 122.555L18.0842 122.549L18.0783 120.049L13.0784 120.06L13.0725 117.56L18.0725 117.549L18.0667 115.049L15.5667 115.055L15.5609 112.555L20.5609 112.543L20.5667 115.043L23.0667 115.037L23.0609 112.537L28.0609 112.526L28.0667 115.026L25.5667 115.031L25.5725 117.531L30.5725 117.52L30.5783 120.02L25.5783 120.031L25.5841 122.531L28.0841 122.526L28.0899 125.025L23.09 125.037L23.0841 122.537L20.5841 122.543L20.59 125.043L15.59 125.055Z" fill="#26272F"/>
<defs>
<linearGradient id="paint0_linear_386_774" x1="99.4739" y1="176.023" x2="105.943" y2="145.384" gradientUnits="userSpaceOnUse">
<stop stop-color="#00011E"/>
<stop offset="1" stop-color="#246EFF"/>
</linearGradient>
</defs>
</svg>
