<svg width="200" height="200" viewBox="0 0 200 200" fill="none" xmlns="http://www.w3.org/2000/svg">
<path d="M132.76 46.2505H66.835C60.394 46.2505 55.1725 51.472 55.1725 57.913V114.838C55.1725 121.279 60.394 126.501 66.835 126.501H132.76C139.201 126.501 144.423 121.279 144.423 114.838V57.913C144.423 51.472 139.201 46.2505 132.76 46.2505Z" fill="#EACAB8" stroke="black" stroke-width="4.5" stroke-miterlimit="10"/>
<path d="M151.533 160.566L151.529 160.825C151.396 162.686 150.085 164.542 147.588 166.306C144.987 168.142 141.2 169.801 136.479 171.185C127.044 173.951 114.003 175.58 99.602 175.401L99.6019 175.401C85.2006 175.225 72.2068 173.274 62.8459 170.278C58.162 168.778 54.4193 167.027 51.8665 165.128C49.3012 163.22 48.0378 161.243 48.0625 159.298C48.0872 157.351 49.4012 155.403 52.0146 153.558C54.6153 151.722 58.4021 150.063 63.1233 148.679C72.5587 145.913 85.5992 144.284 100.001 144.463L100.001 144.463C108.434 144.568 116.385 145.278 123.405 146.451C131.895 147.871 139.004 149.962 143.964 152.457C146.445 153.705 148.362 155.041 149.646 156.422C150.927 157.8 151.551 159.188 151.533 160.566Z" fill="url(#paint0_linear_397_640)" stroke="#26272F" stroke-width="1.125"/>
<path d="M84.0475 173.578V126.328H115.548V173.578" fill="white"/>
<path d="M84.0475 173.578V126.328H115.548V173.578" stroke="black" stroke-width="4.5" stroke-miterlimit="10"/>
<path d="M116.905 144.216C119.178 144.486 121.383 144.793 123.505 145.146C140.545 147.996 152.185 153.561 152.103 159.823C151.99 168.681 128.478 175.573 99.595 175.213C70.7125 174.861 47.3875 167.391 47.5 158.541C47.59 151.513 62.425 145.723 82.9825 143.811" stroke="black" stroke-width="3" stroke-miterlimit="10"/>
<path d="M84.0004 104.881L100.075 88.6768C105.163 83.3908 107.695 80.4451 107.695 76.3818C107.695 71.8059 103.984 68.8912 99.1113 68.8912C93.955 68.8912 90.6883 72.1579 90.6574 77.0858H84.0004C83.9387 68.601 90.4042 63 99.241 63C108.078 63 114.352 68.6689 114.42 76.1904C114.358 81.3776 111.925 85.5089 103.212 94.0554L93.8006 103.596V103.979H115.186V110H84.0004V104.875V104.881Z" fill="black"/>
<g clip-path="url(#clip0_397_640)">
<path d="M133.76 46.2505H67.835C61.394 46.2505 56.1725 51.472 56.1725 57.913V114.838C56.1725 121.279 61.394 126.501 67.835 126.501H133.76C140.201 126.501 145.423 121.279 145.423 114.838V57.913C145.423 51.472 140.201 46.2505 133.76 46.2505Z" fill="#CADDD4" stroke="black" stroke-width="4.5" stroke-miterlimit="10"/>
<g clip-path="url(#clip1_397_640)">
<path d="M84 96.4321H91.0728C91.3287 100.441 95.3068 102.999 100.424 102.999C105.95 102.999 109.964 99.996 109.964 95.5427C109.964 91.0894 106.205 87.8058 99.6687 87.7754H95.7515V82.0915H99.6687C104.877 82.122 108.514 79.2161 108.514 74.8237C108.514 70.4314 105.389 67.8118 100.552 67.8118C95.9708 67.8118 91.8648 70.3704 91.7064 74.5069H85.0113C85.2001 67.0564 92.0841 62 100.613 62C109.617 62 115.27 67.6839 115.203 74.446C115.264 79.6608 112.048 83.383 107.119 84.6197V84.9365C113.376 85.8198 117.007 90.0233 116.976 95.8047C117.007 103.42 109.964 109.006 100.485 109.006C91.0058 109.006 84.2863 103.913 84 96.4321Z" fill="black"/>
</g>
<path d="M152.533 160.566L152.529 160.825C152.396 162.686 151.085 164.542 148.588 166.306C145.987 168.142 142.2 169.801 137.479 171.185C128.044 173.951 115.003 175.58 100.602 175.401L100.602 175.401C86.2006 175.225 73.2068 173.274 63.8459 170.278C59.162 168.778 55.4193 167.027 52.8665 165.128C50.3012 163.22 49.0378 161.243 49.0625 159.298C49.0872 157.351 50.4012 155.403 53.0146 153.558C55.6153 151.722 59.4021 150.063 64.1233 148.679C73.5587 145.913 86.5992 144.284 101.001 144.463L101.001 144.463C109.434 144.568 117.385 145.278 124.405 146.451C132.895 147.871 140.004 149.962 144.964 152.457C147.445 153.705 149.362 155.041 150.646 156.422C151.927 157.8 152.551 159.188 152.533 160.566Z" fill="url(#paint1_linear_397_640)" stroke="#26272F" stroke-width="1.125"/>
<path d="M85.0475 173.578V126.328H116.548V173.578" fill="white"/>
<path d="M85.0475 173.578V126.328H116.548V173.578" stroke="black" stroke-width="4.5" stroke-miterlimit="10"/>
<path d="M117.905 144.405C120.178 144.675 122.383 144.983 124.505 145.335C141.545 148.185 153.185 153.75 153.103 160.013C152.99 168.87 129.478 175.763 100.595 175.403C71.7125 175.05 48.3875 167.58 48.5 158.73C48.59 151.703 63.425 145.913 83.9825 144" stroke="black" stroke-width="3" stroke-miterlimit="10"/>
</g>
<defs>
<linearGradient id="paint0_linear_397_640" x1="100" y1="176" x2="99.9991" y2="144" gradientUnits="userSpaceOnUse">
<stop stop-color="#00011E"/>
<stop offset="1" stop-color="#246EFF"/>
</linearGradient>
<linearGradient id="paint1_linear_397_640" x1="101" y1="176" x2="100.999" y2="144" gradientUnits="userSpaceOnUse">
<stop stop-color="#00011E"/>
<stop offset="1" stop-color="#246EFF"/>
</linearGradient>
<clipPath id="clip0_397_640">
<rect width="107.602" height="132.728" fill="white" transform="translate(47 44)"/>
</clipPath>
<clipPath id="clip1_397_640">
<rect width="32.9762" height="47" fill="white" transform="translate(84 62)"/>
</clipPath>
</defs>
</svg>
