<svg width="200" height="200" viewBox="0 0 200 200" fill="none" xmlns="http://www.w3.org/2000/svg">
<path d="M24.9632 150.554L0 117.545L11.7782 112.12L64.0308 132.211L72.6093 128.266L82.5303 132.082L73.9517 136.026L88.9848 141.81L79.9742 145.956L64.9411 140.173L34.452 154.213L24.9632 150.563V150.554ZM55.0202 136.357L16.7341 121.637L16.0445 121.959L33.9371 145.524L34.5807 145.773L55.0202 136.366V136.357Z" fill="#1453E0"/>
<path d="M24.9632 150.554L0 117.545L11.7782 112.12L64.0308 132.211L72.6093 128.266L82.5303 132.082L73.9517 136.026L88.9848 141.81L79.9742 145.956L64.9411 140.173L34.452 154.213L24.9632 150.563V150.554ZM55.0202 136.357L16.7341 121.637L16.0445 121.959L33.9371 145.524L34.5807 145.773L55.0202 136.366V136.357Z" stroke="black"/>
<path d="M69.3499 117.145C44.2396 107.491 38.2999 97.9287 52.717 91.2902C67.0972 84.6701 90.2675 86.2976 115.424 95.9335C140.654 105.671 146.566 115.113 132.057 121.789C117.548 128.464 94.6257 126.864 69.3499 117.145Z" fill="url(#paint0_linear_440_656)"/>
<path d="M69.1888 118.226C44.0784 108.572 38.1388 99.0093 52.5558 92.3708C66.9361 85.7507 90.1063 87.3781 115.263 97.0141C140.492 106.751 146.405 116.194 131.896 122.869C117.387 129.544 94.4646 127.945 69.1888 118.226Z" stroke="black" stroke-width="3.67782" stroke-miterlimit="10"/>
<path d="M135.978 99.4414L111.015 66.4237L122.793 60.9989L175.046 81.0891L183.615 77.1446L193.536 80.9603L184.967 84.9048L200 90.6882L190.989 94.8349L175.956 89.0516L145.467 103.092L135.978 99.4414ZM166.035 85.245L127.749 70.5245L127.06 70.8463L144.961 94.412L145.605 94.6602L166.044 85.2542L166.035 85.245Z" fill="#1453E0"/>
<path d="M135.978 99.4414L111.015 66.4237L122.793 60.9989L175.046 81.0891L183.615 77.1446L193.536 80.9603L184.967 84.9048L200 90.6882L190.989 94.8349L175.956 89.0516L145.467 103.092L135.978 99.4414ZM166.035 85.245L127.749 70.5245L127.06 70.8463L144.961 94.412L145.605 94.6602L166.044 85.2542L166.035 85.245Z" stroke="black"/>
<g clip-path="url(#clip0_440_656)">
<path d="M102.979 47.7587V54.581H80.9119V47.7587H70.7979V117.49H75.9284V118.024H102.979V124.993H113.093V47.7587H102.979ZM102.979 64.6951V72.3542H80.9119V64.6951H102.979ZM102.979 82.4682V90.1273H80.9119V82.4682H102.979ZM80.9119 107.91V100.251H102.979V107.91H80.9119Z" fill="white" stroke="black" stroke-width="3.67782" stroke-miterlimit="10"/>
</g>
<defs>
<linearGradient id="paint0_linear_440_656" x1="55.8719" y1="121.807" x2="63.2804" y2="67.9775" gradientUnits="userSpaceOnUse">
<stop stop-color="#00011E"/>
<stop offset="1" stop-color="#246EFF"/>
</linearGradient>
<clipPath id="clip0_440_656">
<rect width="47.8116" height="82.7512" fill="white" transform="translate(68.0396 45)"/>
</clipPath>
</defs>
</svg>
