<svg width="100%" height="100%" viewBox="0 0 300 300" fill="none" xmlns="http://www.w3.org/2000/svg">
<mask id="mask0_854_902" style="mask-type:alpha" maskUnits="userSpaceOnUse" x="0" y="0" width="300" height="300">
<rect width="300" height="300" fill="#DBDCDD"/>
</mask>
<g mask="url(#mask0_854_902)">
<rect x="22" y="171" width="70" height="66" fill="white" stroke="#26272F" stroke-width="4" stroke-miterlimit="10"/>
<path d="M55.1839 188.937C55.8987 187.388 58.1013 187.388 58.8161 188.937L61.8917 195.605C62.183 196.237 62.7816 196.672 63.4723 196.754L70.7642 197.618C72.459 197.819 73.1397 199.914 71.8867 201.073L66.4956 206.058C65.9849 206.53 65.7563 207.234 65.8918 207.916L67.3229 215.118C67.6555 216.792 65.8736 218.087 64.3843 217.253L57.9769 213.667C57.3699 213.327 56.6301 213.327 56.0231 213.667L49.6157 217.253C48.1264 218.087 46.3445 216.792 46.6771 215.118L48.1082 207.916C48.2437 207.234 48.0151 206.53 47.5044 206.058L42.1133 201.073C40.8603 199.914 41.541 197.819 43.2358 197.618L50.5277 196.754C51.2184 196.672 51.817 196.237 52.1083 195.605L55.1839 188.937Z" fill="#26272F"/>
<path d="M114.579 261.101C112.449 262.722 111.495 264.337 111.495 265.851C111.495 266.926 111.969 268.043 113.009 269.189C114.055 270.341 115.632 271.473 117.71 272.537C121.865 274.666 127.841 276.434 135.007 277.598L114.579 261.101ZM114.579 261.101C116.693 259.491 119.815 257.999 123.763 256.727M114.579 261.101L123.763 256.727M123.763 256.727C131.648 254.188 142.602 252.601 154.745 252.601M123.763 256.727L154.745 252.601M154.745 252.601C166.888 252.601 177.842 254.188 185.726 256.727M154.745 252.601L185.726 256.727M185.726 256.727C189.674 257.999 192.797 259.491 194.911 261.101M185.726 256.727L194.911 261.101M194.911 261.101C197.041 262.722 197.995 264.337 197.995 265.851M194.911 261.101L197.995 265.851M197.995 265.851C197.995 267.364 197.041 268.979 194.911 270.601M197.995 265.851L194.911 270.601M194.911 270.601C192.797 272.21 189.674 273.703 185.726 274.974M194.911 270.601L185.726 274.974M185.726 274.974C177.842 277.513 166.888 279.101 154.745 279.101M185.726 274.974L154.745 279.101M154.745 279.101C147.639 279.101 140.936 278.557 135.007 277.598L154.745 279.101Z" fill="url(#paint0_linear_854_902)" stroke="#26272F" stroke-width="2"/>
<path d="M176.382 278.99V268.7C176.637 254.998 182.967 240.665 194.127 218.338C205.287 196.01 193.632 176.75 190.842 171.68C188.052 166.61 157.61 154.978 157.61 154.978C157.61 154.978 127.167 157.205 124.632 163.295C122.097 169.385 111.44 201.35 113.472 208.708C115.505 216.065 117.447 222.89 123.83 222.523C130.212 222.155 136.302 212.765 136.302 212.765L131.502 278.75" fill="white"/>
<path d="M176.382 278.99V268.7C176.637 254.998 182.967 240.665 194.127 218.338C205.287 196.01 193.632 176.75 190.842 171.68C188.052 166.61 157.61 154.978 157.61 154.978C157.61 154.978 127.167 157.205 124.632 163.295C122.097 169.385 111.44 201.35 113.472 208.708C115.505 216.065 117.447 222.89 123.83 222.523C130.212 222.155 136.302 212.765 136.302 212.765L131.502 278.75" stroke="#26272F" stroke-width="4" stroke-miterlimit="10"/>
<path d="M145.287 176.158C145.287 176.158 148.917 182.848 158.247 182.248L145.287 176.158Z" fill="white"/>
<path d="M145.287 176.158C145.287 176.158 148.917 182.848 158.247 182.248" stroke="#26272F" stroke-width="4" stroke-miterlimit="10"/>
<path d="M159.672 175.851C159.672 175.851 156.192 180.906 162.012 189.148L159.672 175.851Z" fill="white"/>
<path d="M159.672 175.851C159.672 175.851 156.192 180.906 162.012 189.148" stroke="#26272F" stroke-width="4" stroke-miterlimit="10"/>
<path d="M100.081 115L170 133.122L139.707 202L70 179.665L100.081 115Z" fill="#26272F" stroke="#26272F" stroke-width="4" stroke-miterlimit="10"/>
<path d="M149.33 210.965C148.82 202.34 141.972 197.015 141.972 197.015V192.703C141.215 175.955 131.57 175.708 131.57 175.708C131.57 175.708 123.2 173.675 120.912 184.333C118.632 194.99 125.442 202.31 125.442 202.31C125.442 202.31 121.077 210.118 123.612 223.565C126.147 237.013 132.492 249.185 132.237 254.263C131.982 259.34 132.237 279.5 132.237 279.5" fill="white"/>
<path d="M149.33 210.965C148.82 202.34 141.972 197.015 141.972 197.015V192.703C141.215 175.955 131.57 175.708 131.57 175.708C131.57 175.708 123.2 173.675 120.912 184.333C118.632 194.99 125.442 202.31 125.442 202.31C125.442 202.31 121.077 210.118 123.612 223.565C126.147 237.013 132.492 249.185 132.237 254.263C131.982 259.34 132.237 279.5 132.237 279.5" stroke="#26272F" stroke-width="4" stroke-miterlimit="10"/>
<path d="M159.162 194.248C159.162 194.248 153.387 198.733 149.465 211.341L159.162 194.248Z" fill="white"/>
<path d="M159.162 194.248C159.162 194.248 153.387 198.733 149.465 211.341" stroke="#26272F" stroke-width="4" stroke-miterlimit="10"/>
<path d="M178.37 254.871C189.927 257.443 197.495 261.741 197.495 266.601C197.495 274.468 177.68 280.851 153.245 280.851C128.81 280.851 108.995 274.468 108.995 266.601C108.995 261.343 117.837 256.746 131 254.278C131.397 254.203 131.795 254.128 132.2 254.061" stroke="black" stroke-width="4" stroke-miterlimit="10"/>
</g>
<path d="M104.294 158.573C102.35 157.408 102.35 154.592 104.294 153.427L105.857 152.49C106.99 151.811 107.546 150.47 107.225 149.188L106.782 147.421C106.231 145.223 108.223 143.231 110.421 143.782L112.188 144.225C113.47 144.546 114.811 143.99 115.49 142.857L116.427 141.294C117.592 139.35 120.408 139.35 121.573 141.294L122.51 142.857C123.189 143.99 124.53 144.546 125.812 144.225L127.579 143.782C129.777 143.231 131.769 145.223 131.218 147.421L130.775 149.188C130.454 150.47 131.01 151.811 132.143 152.49L133.706 153.427C135.65 154.592 135.65 157.408 133.706 158.573L132.143 159.51C131.01 160.189 130.454 161.53 130.775 162.812L131.218 164.579C131.769 166.777 129.777 168.769 127.579 168.218L125.812 167.775C124.53 167.454 123.189 168.01 122.51 169.143L121.573 170.706C120.408 172.65 117.592 172.65 116.427 170.706L115.49 169.143C114.811 168.01 113.47 167.454 112.188 167.775L110.421 168.218C108.223 168.769 106.231 166.777 106.782 164.579L107.225 162.812C107.546 161.53 106.99 160.189 105.857 159.51L104.294 158.573Z" fill="#004AE4"/>
<rect x="192" y="84" width="70" height="66" fill="white" stroke="#26272F" stroke-width="4" stroke-miterlimit="10"/>
<rect x="208" y="116.799" width="28" height="28" rx="4" transform="rotate(-45 208 116.799)" fill="#26272F"/>
<rect x="81" y="8" width="70" height="66" fill="white" stroke="#26272F" stroke-width="4" stroke-miterlimit="10"/>
<circle cx="116" cy="41" r="16" fill="#26272F"/>
<defs>
<linearGradient id="paint0_linear_854_902" x1="188.854" y1="254.58" x2="184.485" y2="294.656" gradientUnits="userSpaceOnUse">
<stop stop-color="#00011E"/>
<stop offset="1" stop-color="#246EFF"/>
</linearGradient>
</defs>
</svg>
