<svg width="100%" height="100%" viewBox="0 0 265 288" fill="none" xmlns="http://www.w3.org/2000/svg">
<g opacity="0.2">
<rect x="23" y="1.88281" width="240" height="155" fill="white" stroke="#26272F" stroke-width="3.63121" stroke-miterlimit="10"/>
<rect x="177.593" y="114.593" width="13.4071" height="13.4071" fill="white" stroke="#26272F" stroke-width="7.15044" stroke-miterlimit="10"/>
<rect x="90" y="114.593" width="13.4071" height="13.4071" fill="white" stroke="#26272F" stroke-width="7.15044" stroke-miterlimit="10"/>
<rect x="90" y="27" width="13.4071" height="13.4071" fill="white" stroke="#26272F" stroke-width="7.15044" stroke-miterlimit="10"/>
<rect x="177.593" y="27" width="13.4071" height="13.4071" fill="white" stroke="#26272F" stroke-width="7.15044" stroke-miterlimit="10"/>
<rect x="115.026" y="58.2829" width="50.0531" height="36.646" fill="#26272F" stroke="#26272F" stroke-width="3.57522" stroke-miterlimit="10"/>
<path d="M109.619 62.6043L139.959 77.1367L169.928 62.6043" stroke="#E7EAEE" stroke-width="3.57522" stroke-miterlimit="10"/>
</g>
<path d="M129.812 255.533C134.806 237.85 111.819 215.879 78.4697 206.461C45.12 197.043 14.0363 203.743 9.04237 221.427C4.04841 239.111 27.0353 261.081 60.385 270.499C93.7347 279.917 124.818 273.217 129.812 255.533Z" fill="#1453DF"/>
<path d="M27.594 250.743L60.7824 270.448L99.1564 273.964L109.528 225.219L131.308 205.109L123.788 189.552L60.0253 192.663L27.594 250.743Z" fill="white"/>
<path d="M137.582 79.5538H80.8716C74.7656 79.5538 69.8157 84.5037 69.8157 90.6097V193.992C69.8157 200.097 74.7656 205.047 80.8716 205.047H137.582C143.688 205.047 148.638 200.097 148.638 193.992V90.6097C148.638 84.5037 143.688 79.5538 137.582 79.5538Z" fill="white" stroke="black" stroke-width="6.22282" stroke-miterlimit="10"/>
<path d="M116.487 79.5538H101.967C99.3893 79.5538 97.2998 81.6434 97.2998 84.2209C97.2998 86.7985 99.3893 88.8881 101.967 88.8881H116.487C119.064 88.8881 121.154 86.7985 121.154 84.2209C121.154 81.6434 119.064 79.5538 116.487 79.5538Z" fill="black"/>
<path d="M75.3022 221.703C85.6735 201.998 74.8977 179.606 74.8977 179.606C74.8977 179.606 75.2192 179.544 75.7896 179.409C79.793 178.476 96.0345 174.296 98.534 167.347C101.386 159.413 98.3888 148.616 81.7532 150.825C65.1175 153.035 56.0425 163.105 56.0425 163.105C56.0425 163.105 50.6702 167.731 53.2838 183.526C55.9077 199.322 30.0934 251.988 30.0934 251.988" fill="white"/>
<path d="M75.3022 221.703C85.6735 201.998 74.8977 179.606 74.8977 179.606C74.8977 179.606 75.2192 179.544 75.7896 179.409C79.793 178.476 96.0345 174.296 98.534 167.347C101.386 159.413 98.3888 148.616 81.7532 150.825C65.1175 153.035 56.0425 163.105 56.0425 163.105C56.0425 163.105 50.6702 167.731 53.2838 183.526C55.9077 199.322 30.0934 251.988 30.0934 251.988" stroke="black" stroke-width="6.22282" stroke-miterlimit="10"/>
<path d="M149.499 177.023C149.499 177.023 144.189 176.723 142.363 180.456C140.538 184.19 138.526 190.122 145.859 193.721C153.191 197.32 161.146 188.515 161.146 188.515C161.146 188.515 171.393 175.053 158.47 169.877" fill="white"/>
<path d="M149.499 177.023C149.499 177.023 144.189 176.723 142.363 180.456C140.538 184.19 138.526 190.122 145.859 193.721C153.191 197.32 161.146 188.515 161.146 188.515C161.146 188.515 171.393 175.053 158.47 169.877" stroke="black" stroke-width="6.22282" stroke-miterlimit="10"/>
<path d="M99.1565 272.523C99.1565 272.523 103.388 226.972 112.214 221.734C121.04 216.497 131.401 205.223 131.401 205.223" stroke="black" stroke-width="6.22282" stroke-miterlimit="10"/>
<path d="M148.462 159.392C148.462 159.392 143.152 159.091 141.326 162.825C139.501 166.559 137.489 172.491 144.821 176.09C152.154 179.689 160.109 170.884 160.109 170.884C160.109 170.884 170.356 157.421 157.433 152.246" fill="white"/>
<path d="M148.462 159.392C148.462 159.392 143.152 159.091 141.326 162.825C139.501 166.559 137.489 172.491 144.821 176.09C152.154 179.689 160.109 170.884 160.109 170.884C160.109 170.884 170.356 157.421 157.433 152.246" stroke="black" stroke-width="6.22282" stroke-miterlimit="10"/>
<path d="M149.509 133.328C153.233 134.21 155.348 135.641 155.348 135.641C167.825 141.802 158.024 154.279 158.024 154.279C158.024 154.279 150.069 163.084 142.737 159.485C135.404 155.886 137.416 149.943 139.242 146.22C141.067 142.497 146.377 142.787 146.377 142.787H148.928V132.468" fill="white"/>
<path d="M149.509 133.328C153.233 134.21 155.348 135.641 155.348 135.641C167.825 141.802 158.024 154.279 158.024 154.279C158.024 154.279 150.069 163.084 142.737 159.485C135.404 155.886 137.416 149.943 139.242 146.22C141.067 142.497 146.377 142.787 146.377 142.787H148.928V132.468" stroke="black" stroke-width="6.22282" stroke-miterlimit="10"/>
<path d="M91.8965 122.313V111.766H102.34" stroke="black" stroke-width="4.14855" stroke-miterlimit="10"/>
<path d="M116.736 111.817H127.284V122.261" stroke="black" stroke-width="4.14855" stroke-miterlimit="10"/>
<path d="M127.284 136.658V147.205H116.84" stroke="black" stroke-width="4.14855" stroke-miterlimit="10"/>
<path d="M102.444 147.153H91.8965V136.709" stroke="black" stroke-width="4.14855" stroke-miterlimit="10"/>
<path d="M110.565 193.7C114.575 193.7 117.825 190.45 117.825 186.44C117.825 182.431 114.575 179.18 110.565 179.18C106.555 179.18 103.305 182.431 103.305 186.44C103.305 190.45 106.555 193.7 110.565 193.7Z" fill="black"/>
<path d="M111.716 220.428C126.153 230.716 133.963 243.442 130.841 254.498C125.852 272.181 94.7693 278.881 61.415 269.464C28.071 260.036 5.07772 238.07 10.0767 220.397C13.5615 208.044 29.7823 201.054 50.608 201.168" stroke="black" stroke-width="6.22282" stroke-miterlimit="10"/>
<path d="M78.1879 207.459C94.7329 212.132 108.657 219.906 117.803 228.647C126.987 237.425 131.156 246.961 128.814 255.251C126.473 263.542 117.932 269.488 105.514 272.165C93.146 274.831 77.2119 274.173 60.6669 269.501C44.1218 264.829 30.1974 257.054 21.0514 248.313C11.8678 239.535 7.69911 230 10.0405 221.709C12.3818 213.418 20.9227 207.472 33.3412 204.795C45.7087 202.129 61.6428 202.787 78.1879 207.459Z" fill="url(#paint0_linear_951_807)" stroke="#26272F" stroke-width="2.07427"/>
<path d="M29.0978 251.988L31.6906 256.136L60.7824 270.448L100.142 273.249L109.528 223.777L131.308 205.109L123.788 189.552L60.0252 192.663L29.0978 251.988Z" fill="white"/>
<path d="M137.582 79.5538H80.8716C74.7656 79.5538 69.8157 84.5037 69.8157 90.6096V193.991C69.8157 200.097 74.7656 205.047 80.8716 205.047H137.582C143.688 205.047 148.638 200.097 148.638 193.991V90.6096C148.638 84.5037 143.688 79.5538 137.582 79.5538Z" fill="#E7EAEE" stroke="black" stroke-width="3.11141" stroke-miterlimit="10"/>
<path d="M116.487 77.4795H101.967C99.3893 77.4795 97.2998 79.569 97.2998 82.1466C97.2998 84.7242 99.3893 86.8137 101.967 86.8137H116.487C119.064 86.8137 121.154 84.7242 121.154 82.1466C121.154 79.569 119.064 77.4795 116.487 77.4795Z" fill="black"/>
<path d="M75.3022 221.703C85.6735 201.998 74.8977 179.606 74.8977 179.606C74.8977 179.606 75.2192 179.544 75.7896 179.409C79.793 178.476 96.0345 174.296 98.534 167.347C101.386 159.413 98.3888 148.616 81.7532 150.825C65.1175 153.035 56.0425 163.105 56.0425 163.105C56.0425 163.105 50.6702 167.731 53.2838 183.526C55.9077 199.322 29.6163 254.062 29.6163 254.062" fill="white"/>
<path d="M75.3022 221.703C85.6735 201.998 74.8977 179.606 74.8977 179.606C74.8977 179.606 75.2192 179.544 75.7896 179.409C79.793 178.476 96.0345 174.296 98.534 167.347C101.386 159.413 98.3888 148.616 81.7532 150.825C65.1175 153.035 56.0425 163.105 56.0425 163.105C56.0425 163.105 50.6702 167.731 53.2838 183.526C55.9077 199.322 29.6163 254.062 29.6163 254.062" stroke="black" stroke-width="4.14855" stroke-miterlimit="10"/>
<path d="M149.499 177.023C149.499 177.023 144.189 176.723 142.363 180.456C140.538 184.19 138.526 190.122 145.859 193.721C153.191 197.32 161.146 188.515 161.146 188.515C161.146 188.515 171.393 175.053 158.47 169.877" fill="white"/>
<path d="M149.499 177.023C149.499 177.023 144.189 176.723 142.363 180.456C140.538 184.19 138.526 190.122 145.859 193.721C153.191 197.32 161.146 188.515 161.146 188.515C161.146 188.515 171.393 175.053 158.47 169.877" stroke="black" stroke-width="4.14855" stroke-miterlimit="10"/>
<path d="M100.142 273.767C100.142 273.767 103.388 226.972 112.214 221.734C121.04 216.497 131.401 205.223 131.401 205.223" stroke="black" stroke-width="6.22282" stroke-miterlimit="10"/>
<path d="M148.462 159.392C148.462 159.392 143.152 159.091 141.326 162.825C139.501 166.559 137.489 172.491 144.821 176.09C152.154 179.689 160.109 170.884 160.109 170.884C160.109 170.884 170.356 157.421 157.433 152.246" fill="white"/>
<path d="M148.462 159.392C148.462 159.392 143.152 159.091 141.326 162.825C139.501 166.559 137.489 172.491 144.821 176.09C152.154 179.689 160.109 170.884 160.109 170.884C160.109 170.884 170.356 157.421 157.433 152.246" stroke="black" stroke-width="4.14855" stroke-miterlimit="10"/>
<path d="M149.509 133.328C153.233 134.21 155.348 135.641 155.348 135.641C167.825 141.802 158.024 154.279 158.024 154.279C158.024 154.279 150.069 163.084 142.737 159.485C135.404 155.886 137.416 149.943 139.242 146.22C141.067 142.497 146.377 142.787 146.377 142.787H148.928V132.468" fill="white"/>
<path d="M149.509 133.328C153.233 134.21 155.348 135.641 155.348 135.641C167.825 141.802 158.024 154.279 158.024 154.279C158.024 154.279 150.069 163.084 142.737 159.485C135.404 155.886 137.416 149.943 139.242 146.22C141.067 142.497 146.377 142.787 146.377 142.787H148.928V132.468" stroke="black" stroke-width="4.14855" stroke-miterlimit="10"/>
<path d="M91.8965 122.313V111.766H102.34" stroke="black" stroke-width="4.14855" stroke-miterlimit="10"/>
<path d="M116.736 111.817H127.284V122.261" stroke="black" stroke-width="4.14855" stroke-miterlimit="10"/>
<path d="M127.284 136.658V147.205H116.84" stroke="black" stroke-width="4.14855" stroke-miterlimit="10"/>
<path d="M102.444 147.153H91.8965V136.709" stroke="black" stroke-width="4.14855" stroke-miterlimit="10"/>
<path d="M110.565 193.7C114.575 193.7 117.825 190.45 117.825 186.44C117.825 182.431 114.575 179.18 110.565 179.18C106.555 179.18 103.305 182.431 103.305 186.44C103.305 190.45 106.555 193.7 110.565 193.7Z" fill="black"/>
<path d="M111.716 220.428C126.153 230.716 133.963 243.442 130.841 254.498C125.852 272.181 94.7693 278.881 61.415 269.464C28.071 260.036 5.07772 238.07 10.0767 220.397C13.5615 208.044 29.7823 201.054 50.608 201.168" stroke="black" stroke-width="4.14855" stroke-miterlimit="10"/>
<rect x="99.4884" y="122.601" width="20.5292" height="15.03" fill="#26272F" stroke="#26272F" stroke-width="1.46636" stroke-miterlimit="10"/>
<path d="M97.8542 123.581L110.011 130.485L122.019 123.581" stroke="#E7EAEE" stroke-width="1.46636" stroke-miterlimit="10"/>
<defs>
<linearGradient id="paint0_linear_951_807" x1="110.216" y1="276.649" x2="10.1581" y2="164.229" gradientUnits="userSpaceOnUse">
<stop stop-color="#00011E"/>
<stop offset="1" stop-color="#246EFF"/>
</linearGradient>
</defs>
</svg>
