<svg width="100%" height="100%" viewBox="0 0 300 300" fill="none" xmlns="http://www.w3.org/2000/svg">
<g opacity="0.2">
<path d="M92 208V237H22V171H58" stroke="#26272F" stroke-width="4" stroke-miterlimit="10"/>
<path d="M55.1839 188.937C55.8987 187.388 58.1013 187.388 58.8161 188.937L61.8917 195.605C62.183 196.237 62.7816 196.672 63.4723 196.754L70.7642 197.618C72.459 197.819 73.1397 199.914 71.8867 201.073L66.4956 206.058C65.9849 206.53 65.7563 207.234 65.8918 207.916L67.3229 215.118C67.6555 216.792 65.8736 218.087 64.3843 217.253L57.9769 213.667C57.3699 213.327 56.6301 213.327 56.0231 213.667L49.6157 217.253C48.1264 218.087 46.3445 216.792 46.6771 215.118L48.1082 207.916C48.2437 207.234 48.0151 206.53 47.5044 206.058L42.1133 201.073C40.8603 199.914 41.541 197.819 43.2358 197.618L50.5277 196.754C51.2184 196.672 51.817 196.237 52.1083 195.605L55.1839 188.937Z" fill="#26272F"/>
</g>
<g opacity="0.2">
<rect x="223" y="84" width="70" height="66" fill="white" stroke="#26272F" stroke-width="4" stroke-miterlimit="10"/>
<rect x="239" y="116.799" width="28" height="28" rx="4" transform="rotate(-45 239 116.799)" fill="#26272F"/>
</g>
<g opacity="0.2">
<rect x="112" y="8" width="70" height="66" fill="white" stroke="#26272F" stroke-width="4" stroke-miterlimit="10"/>
<circle cx="147" cy="41" r="16" fill="#26272F"/>
</g>
<g clip-path="url(#clip0_854_873)">
<path d="M152.28 180.58L179.45 200.58" stroke="#26272F" stroke-width="5" stroke-miterlimit="10"/>
<path d="M253.16 276.72C251.365 276.601 249.499 275.406 247.657 272.987C245.723 270.448 243.939 266.71 242.422 262.002C239.392 252.597 237.5 239.54 237.5 225.07C237.5 210.6 239.389 197.543 242.418 188.138C243.934 183.43 245.719 179.692 247.653 177.153C249.598 174.599 251.57 173.41 253.46 173.41C255.35 173.41 257.322 174.599 259.267 177.153C261.201 179.692 262.986 183.43 264.502 188.138C267.531 197.543 269.42 210.6 269.42 225.07C269.42 233.531 268.774 241.527 267.623 248.579L267.623 248.58C266.237 257.118 264.127 264.251 261.581 269.22C260.308 271.706 258.948 273.604 257.555 274.869C256.168 276.129 254.797 276.72 253.46 276.72L253.16 276.72Z" fill="url(#paint0_linear_854_873)" stroke="#26272F" stroke-width="2"/>
<path d="M182.5 212.5C182.5 212.5 163.5 211.5 164.5 199.5C165.5 187.5 181.5 194.5 184.5 194.5C187.5 194.5 204.5 192.5 212.5 201.5C212.5 201.5 215.5 203.5 220.5 203.5L269.5 203.5C269.5 203.5 272.5 234.5 269.5 248.5L234.5 248.5C234.5 248.5 215.5 257.5 207.5 259.5C199.5 261.5 180.49 267.44 179.5 259.5L178.35 255.78L165.27 251.12L163.94 246.02L155.74 229.84L154.51 216.5" fill="white"/>
<path d="M182.5 212.5C182.5 212.5 163.5 211.5 164.5 199.5C165.5 187.5 181.5 194.5 184.5 194.5C187.5 194.5 204.5 192.5 212.5 201.5C212.5 201.5 215.5 203.5 220.5 203.5L269.5 203.5C269.5 203.5 272.5 234.5 269.5 248.5L234.5 248.5C234.5 248.5 215.5 257.5 207.5 259.5C199.5 261.5 180.49 267.44 179.5 259.5L178.35 255.78L165.27 251.12L163.94 246.02L155.74 229.84L154.51 216.5" stroke="#26272F" stroke-width="4" stroke-miterlimit="10"/>
<path d="M155.5 230.5C155.5 230.5 151.5 235.5 153.5 240.5C155.5 245.5 166.5 247.5 188.5 244.5" fill="white"/>
<path d="M155.5 230.5C155.5 230.5 151.5 235.5 153.5 240.5C155.5 245.5 166.5 247.5 188.5 244.5" stroke="#26272F" stroke-width="4" stroke-miterlimit="10"/>
<path d="M164.5 247.5C164.5 247.5 163.5 252.5 167.5 255.5C171.5 258.5 198.5 253.5 198.5 253.5" fill="white"/>
<path d="M164.5 247.5C164.5 247.5 163.5 252.5 167.5 255.5C171.5 258.5 198.5 253.5 198.5 253.5" stroke="#26272F" stroke-width="4" stroke-miterlimit="10"/>
<path d="M178.44 212.26C175.25 213.63 168.33 215.1 163.79 215.97C161.28 216.45 159.5 216.76 159.5 216.76" stroke="#26272F" stroke-width="5" stroke-miterlimit="10"/>
<path d="M157.5 160.5C157.5 132.886 135.114 110.5 107.5 110.5C79.8858 110.5 57.5 132.886 57.5 160.5C57.5 188.114 79.8858 210.5 107.5 210.5C135.114 210.5 157.5 188.114 157.5 160.5Z" stroke="#26272F" stroke-width="4" stroke-miterlimit="10"/>
<path d="M145.5 161C145.5 139.737 128.263 122.5 107 122.5C85.737 122.5 68.5 139.737 68.5 161C68.5 182.263 85.737 199.5 107 199.5C128.263 199.5 145.5 182.263 145.5 161Z" stroke="#26272F" stroke-width="4" stroke-miterlimit="10"/>
<path d="M148.5 207.5C148.5 207.5 141.5 211.5 144.5 221.5C147.5 231.5 174.5 232.5 188.5 229.5" fill="white"/>
<path d="M148.5 207.5C148.5 207.5 141.5 211.5 144.5 221.5C147.5 231.5 174.5 232.5 188.5 229.5" stroke="#26272F" stroke-width="4" stroke-miterlimit="10"/>
<path d="M167.04 218.77L140.36 199.12" stroke="#26272F" stroke-width="5" stroke-miterlimit="10"/>
<path d="M239.99 203.43C240.09 202.74 240.19 202.06 240.3 201.39C243.09 184.2 248.83 172.41 255.45 172.41C264.81 172.41 272.41 195.98 272.41 225.07C272.41 254.16 264.82 277.73 255.45 277.73C248.8 277.73 243.05 265.85 240.27 248.55" stroke="#26272F" stroke-width="4" stroke-miterlimit="10"/>
</g>
<path d="M106.981 150.005C98.2088 149.681 90.2658 153.594 85.1199 159.905C89.7861 166.583 97.4177 171.075 106.183 171.405C114.955 171.729 122.898 167.817 128.044 161.506C123.384 154.821 115.752 150.329 106.981 150.005Z" fill="white" stroke="#26272F" stroke-width="4" stroke-miterlimit="10"/>
<path d="M106.582 171.48C112.531 171.48 117.353 166.657 117.353 160.708C117.353 154.759 112.531 149.937 106.582 149.937C100.633 149.937 95.8105 154.759 95.8105 160.708C95.8105 166.657 100.633 171.48 106.582 171.48Z" fill="#26272F"/>
<defs>
<linearGradient id="paint0_linear_854_873" x1="240.046" y1="184.478" x2="287.743" y2="189.679" gradientUnits="userSpaceOnUse">
<stop stop-color="#00011E"/>
<stop offset="1" stop-color="#246EFF"/>
</linearGradient>
<clipPath id="clip0_854_873">
<rect width="172.22" height="219.91" fill="white" transform="translate(55 280.22) rotate(-90)"/>
</clipPath>
</defs>
</svg>
