<svg width="200" height="200" viewBox="0 0 200 200" fill="none" xmlns="http://www.w3.org/2000/svg">
<g clip-path="url(#clip0_498_755)">
<path d="M145.025 166.891C146.083 168.028 146.628 169.167 146.683 170.294L146.68 170.53C146.657 172.23 145.509 173.943 143.193 175.579C140.889 177.205 137.531 178.677 133.34 179.906C124.963 182.362 113.381 183.812 100.584 183.655C87.788 183.498 76.2474 181.764 67.9375 179.104C63.779 177.772 60.4613 176.218 58.2017 174.536C55.9296 172.845 54.8273 171.104 54.85 169.405C54.8726 167.705 56.0212 165.991 58.3374 164.356C60.6409 162.73 63.9985 161.258 68.1905 160.029C76.5675 157.572 88.1493 156.123 100.946 156.28L100.946 156.28C108.434 156.369 115.5 157.005 121.74 158.049L121.832 157.495L121.74 158.049C129.281 159.312 135.592 161.169 139.992 163.382C142.193 164.489 143.89 165.672 145.025 166.891Z" fill="url(#paint0_linear_498_755)" stroke="#26272F" stroke-width="1.125"/>
<path d="M102.939 108.122C102.939 108.122 96.5642 99.1673 92.7242 90.9023C92.7242 90.9023 76.9292 72.5198 68.1917 81.4448C62.3492 87.4148 79.9292 92.1848 79.1642 115.187L102.939 108.115V108.122Z" fill="white" stroke="#26272F" stroke-width="4.5" stroke-miterlimit="10"/>
<path d="M110.492 186.677L78.25 182.11L97.4875 130.36L127 114.5L124 150.5L110.492 186.677Z" fill="white"/>
<path d="M122.342 115.93C116.995 110.297 110.965 104.65 105.092 100.93C111.317 94.8025 116.717 89.3725 118.12 87.625C123.4 81.04 122.53 75.73 117.415 72.9475C103.652 65.455 47.44 120.557 73 143.11C78.0475 147.565 82.495 151.645 85.6525 153.887L77.5 181.36" fill="white"/>
<path d="M122.342 115.93C116.995 110.297 110.965 104.65 105.092 100.93C111.317 94.8025 116.717 89.3725 118.12 87.625C123.4 81.04 122.53 75.73 117.415 72.9475C103.652 65.455 47.44 120.557 73 143.11C78.0475 147.565 82.495 151.645 85.6525 153.887L77.5 181.36" stroke="#26272F" stroke-width="4.5" stroke-miterlimit="10"/>
<path d="M111.25 184.36C114.145 179.14 131.462 136.907 130.675 128.965C130.112 123.272 127.165 123.73 125.5 120.61" fill="white"/>
<path d="M111.25 184.36C114.145 179.14 131.462 136.907 130.675 128.965C130.112 123.272 127.165 123.73 125.5 120.61" stroke="#26272F" stroke-width="4.5" stroke-miterlimit="10"/>
<path d="M87.955 114.737C87.955 114.737 95.77 98.8073 104.507 97.1048C112.877 95.4773 112.885 101.92 112.885 101.92" fill="white"/>
<path d="M87.955 114.737C87.955 114.737 95.77 98.8073 104.507 97.1048C112.877 95.4773 112.885 101.92 112.885 101.92" stroke="#26272F" stroke-width="4.5" stroke-miterlimit="10"/>
<path d="M97.75 119.86C97.75 119.86 106.33 102.468 115.075 100.765C123.445 99.1379 123.4 105.235 123.4 105.235" fill="white"/>
<path d="M97.75 119.86C97.75 119.86 106.33 102.468 115.075 100.765C123.445 99.1379 123.4 105.235 123.4 105.235" stroke="#26272F" stroke-width="4.5" stroke-miterlimit="10"/>
<path d="M107.522 124.292C110.447 115.795 119.042 103.487 128.042 105.347C137.59 107.32 131.23 127.63 123.25 125.11C120.82 124.345 123.25 119.11 123.25 119.11" fill="white"/>
<path d="M107.522 124.292C110.447 115.795 119.042 103.487 128.042 105.347C137.59 107.32 131.23 127.63 123.25 125.11C120.82 124.345 123.25 119.11 123.25 119.11" stroke="#26272F" stroke-width="4.5" stroke-miterlimit="10"/>
<path d="M121.21 157.383C136.232 159.82 146.492 164.673 146.462 170.208C146.425 178.075 125.575 184.352 99.91 184.217C74.2375 184.082 53.4625 177.595 53.5 169.728C53.53 164.47 62.845 159.925 76.6825 157.525C78.04 157.293 81.28 156.715 82.72 156.52" stroke="#26272F" stroke-width="3" stroke-miterlimit="10"/>
</g>
<path d="M159.541 102.529L159.535 100.029L157.035 100.035L157.029 97.5347L154.529 97.5405L154.512 90.0406L159.512 90.0289L159.529 97.5289L164.529 97.5173L164.512 90.0173L169.512 90.0057L169.529 97.5057L167.029 97.5115L167.035 100.011L164.535 100.017L164.541 102.517L159.541 102.529Z" fill="#26272F"/>
<path d="M91.5407 42.5284L91.5349 40.0284L89.0349 40.0342L89.0291 37.5342L86.5291 37.5401L86.5116 30.0401L91.5116 30.0284L91.529 37.5284L96.529 37.5168L96.5116 30.0168L101.512 30.0052L101.529 37.5052L99.029 37.511L99.0348 40.011L96.5348 40.0168L96.5407 42.5168L91.5407 42.5284Z" fill="#26272F"/>
<path d="M29.5407 122.529L29.5349 120.029L27.0349 120.035L27.0291 117.535L24.5291 117.541L24.5116 110.041L29.5116 110.029L29.529 117.529L34.529 117.517L34.5116 110.017L39.5116 110.006L39.529 117.506L37.029 117.511L37.0348 120.011L34.5348 120.017L34.5407 122.517L29.5407 122.529Z" fill="#26272F"/>
<defs>
<linearGradient id="paint0_linear_498_755" x1="101" y1="184" x2="106.686" y2="157.207" gradientUnits="userSpaceOnUse">
<stop stop-color="#00011E"/>
<stop offset="1" stop-color="#246EFF"/>
</linearGradient>
<clipPath id="clip0_498_755">
<rect width="95.9625" height="116.677" fill="white" transform="translate(52 70)"/>
</clipPath>
</defs>
</svg>
