<svg viewBox="0 0 134 144" fill="none" xmlns="http://www.w3.org/2000/svg">
<path d="M89.5959 85.2092C89.5959 116.069 69.7835 140.673 45.798 140.673C21.8124 140.673 2 116.069 2 85.2092C2 54.349 21.8124 29.7451 45.798 29.7451C69.7835 29.7451 89.5959 54.349 89.5959 85.2092Z" fill="url(#paint0_linear_3_407)" stroke="black" stroke-width="2"/>
<path d="M4.44141 72.9365C4.44141 72.9365 2.57485 93.0022 4.44143 106.068C5.57072 113.973 20.599 131.734 20.599 131.734L118.128 77.6029L114.395 46.8043L86.571 41.2046L31.5068 68.8487L23.1072 72.9365H4.44141Z" fill="white"/>
<path d="M123.737 60.2159C123.737 60.2159 128.516 59.3666 130.839 64.3317C133.163 69.2968 127.19 77.0525 127.19 77.0525C127.19 77.0525 119.724 86.936 108.45 93.9823C108.45 93.9823 101.805 110.95 81.6643 115.747C68.2156 118.948 60.768 116.783 57.1655 116.223C55.2522 115.924 53.2923 116.223 51.5377 117.053L20.5991 132.341" fill="white"/>
<path d="M123.737 60.2159C123.737 60.2159 128.516 59.3666 130.839 64.3317C133.163 69.2968 127.19 77.0525 127.19 77.0525C127.19 77.0525 119.724 86.936 108.45 93.9823C108.45 93.9823 101.805 110.95 81.6643 115.747C68.2156 118.948 60.768 116.783 57.1655 116.223C55.2522 115.924 53.2923 116.223 51.5377 117.053L20.5991 132.341" stroke="black" stroke-width="4" stroke-miterlimit="10"/>
<path d="M117.895 31.7595C120.106 28.8663 123.196 25.7398 127.759 28.2036C131.427 30.1822 132.538 34.858 129.514 45.6002C128.058 50.7893 126.024 56.1184 119.127 65.7406C115.412 70.9297 111.287 75.5028 108.086 78.788" fill="white"/>
<path d="M117.895 31.7595C120.106 28.8663 123.196 25.7398 127.759 28.2036C131.427 30.1822 132.538 34.858 129.514 45.6002C128.058 50.7893 126.024 56.1184 119.127 65.7406C115.412 70.9297 111.287 75.5028 108.086 78.788" stroke="black" stroke-width="4" stroke-miterlimit="10"/>
<path d="M102.962 13.0378C104.707 9.83666 107.311 6.38349 112.874 8.3994C118.025 10.2753 119.584 14.7738 118.763 26.1319C118.361 31.6197 117.381 37.3034 112.08 47.8963C106.378 59.3104 98.3142 68.3913 98.3142 68.3913" fill="white"/>
<path d="M102.962 13.0378C104.707 9.83666 107.311 6.38349 112.874 8.3994C118.025 10.2753 119.584 14.7738 118.763 26.1319C118.361 31.6197 117.381 37.3034 112.08 47.8963C106.378 59.3104 98.3142 68.3913 98.3142 68.3913" stroke="black" stroke-width="4" stroke-miterlimit="10"/>
<path d="M79.2378 22.3427C79.2378 22.3427 83.2416 12.6551 84.4829 9.22995C85.7242 5.80477 89.0467 0.71834 94.7491 2.2956C100.293 3.83553 102.346 7.58736 103.242 18.9362C103.671 24.4239 103.55 30.1917 99.9102 41.4565C95.9904 53.5986 89.3827 63.7901 89.3827 63.7901" fill="white"/>
<path d="M79.2378 22.3427C79.2378 22.3427 83.2416 12.6551 84.4829 9.22995C85.7242 5.80477 89.0467 0.71834 94.7491 2.2956C100.293 3.83553 102.346 7.58736 103.242 18.9362C103.671 24.4239 103.55 30.1917 99.9102 41.4565C95.9904 53.5986 89.3827 63.7901 89.3827 63.7901" stroke="black" stroke-width="4" stroke-miterlimit="10"/>
<path d="M2.8667 72.6098L22.5405 72.4418C25.7603 72.4138 28.8029 70.9858 30.8654 68.5219C34.1506 64.6208 39.1064 58.8624 41.5983 56.6412C45.4434 53.216 58.4722 44.8444 58.4722 44.8444C58.4722 44.8444 61.356 34.3075 67.4504 26.7852C69.261 24.5453 73.8621 22.2027 76.354 22.2681C79.2286 22.3427 80.8991 23.9013 81.9911 25.0679C83.083 26.2345 87.6375 31.0223 85.6589 40.6632C85.2203 42.8098 82.5511 49.2215 79.8725 52.6093C78.9206 53.804 75.4394 56.8092 75.4394 56.8092C75.4394 56.8092 79.5645 64.1168 76.7367 73.2631C73.9088 82.4093 67.9917 88.0091 64.1839 90.501" fill="white"/>
<path d="M2.8667 72.6098L22.5405 72.4418C25.7603 72.4138 28.8029 70.9858 30.8654 68.5219C34.1506 64.6208 39.1064 58.8624 41.5983 56.6412C45.4434 53.216 58.4722 44.8444 58.4722 44.8444C58.4722 44.8444 61.356 34.3075 67.4504 26.7852C69.261 24.5453 73.8621 22.2027 76.354 22.2681C79.2286 22.3427 80.8991 23.9013 81.9911 25.0679C83.083 26.2345 87.6375 31.0223 85.6589 40.6632C85.2203 42.8098 82.5511 49.2215 79.8725 52.6093C78.9206 53.804 75.4394 56.8092 75.4394 56.8092C75.4394 56.8092 79.5645 64.1168 76.7367 73.2631C73.9088 82.4093 67.9917 88.0091 64.1839 90.501" stroke="black" stroke-width="4" stroke-miterlimit="10"/>
<path d="M85.6869 115.42C77.7726 131.379 63.7079 142 47.6647 142C22.9231 142 2.8667 116.717 2.8667 85.5359C2.8667 54.3547 22.9231 29.0718 47.6647 29.0718C53.8524 29.0718 59.7414 30.6491 65.0985 33.505" stroke="black" stroke-width="4" stroke-miterlimit="10"/>
<defs>
<linearGradient id="paint0_linear_3_407" x1="11.2662" y1="129.867" x2="69.274" y2="-6.06137" gradientUnits="userSpaceOnUse">
<stop stop-color="#00011E"/>
<stop offset="1" stop-color="#246EFF"/>
</linearGradient>
</defs>
</svg>
