<svg width="142" height="155" viewBox="0 0 142 155" fill="none" xmlns="http://www.w3.org/2000/svg">
<path d="M95 91.1567C95 124.246 73.754 150.657 48 150.657C22.246 150.657 1 124.246 1 91.1567C1 58.0676 22.246 31.6567 48 31.6567C73.754 31.6567 95 58.0676 95 91.1567Z" fill="url(#paint0_linear_3_407)" stroke="black" stroke-width="2"/>
<path d="M3.68747 78.0068C3.68747 78.0068 1.6875 99.5068 3.6875 113.507C4.8975 121.977 21 141.007 21 141.007L125.5 83.0068L121.5 50.0068L91.6875 44.0068L32.6875 73.6268L23.6875 78.0068H3.68747Z" fill="white"/>
<path d="M131.51 64.377C131.51 64.377 136.63 63.467 139.12 68.787C141.61 74.107 135.21 82.417 135.21 82.417C135.21 82.417 127.21 93.007 115.13 100.557C115.13 100.557 108.01 118.737 86.43 123.877C72.02 127.307 64.04 124.987 60.18 124.387C58.13 124.067 56.03 124.387 54.15 125.277L21 141.657" fill="white"/>
<path d="M131.51 64.377C131.51 64.377 136.63 63.467 139.12 68.787C141.61 74.107 135.21 82.417 135.21 82.417C135.21 82.417 127.21 93.007 115.13 100.557C115.13 100.557 108.01 118.737 86.43 123.877C72.02 127.307 64.04 124.987 60.18 124.387C58.13 124.067 56.03 124.387 54.15 125.277L21 141.657" stroke="black" stroke-width="4" stroke-miterlimit="10"/>
<path d="M125.25 33.8867C127.62 30.7867 130.93 27.4367 135.82 30.0767C139.75 32.1967 140.94 37.2067 137.7 48.7167C136.14 54.2767 133.96 59.9867 126.57 70.2967C122.59 75.8567 118.17 80.7566 114.74 84.2766" fill="white"/>
<path d="M125.25 33.8867C127.62 30.7867 130.93 27.4367 135.82 30.0767C139.75 32.1967 140.94 37.2067 137.7 48.7167C136.14 54.2767 133.96 59.9867 126.57 70.2967C122.59 75.8567 118.17 80.7566 114.74 84.2766" stroke="black" stroke-width="4" stroke-miterlimit="10"/>
<path d="M109.25 13.8268C111.12 10.3968 113.91 6.6968 119.87 8.8568C125.39 10.8668 127.06 15.6868 126.18 27.8568C125.75 33.7368 124.7 39.8268 119.02 51.1768C112.91 63.4068 104.27 73.1368 104.27 73.1368" fill="white"/>
<path d="M109.25 13.8268C111.12 10.3968 113.91 6.6968 119.87 8.8568C125.39 10.8668 127.06 15.6868 126.18 27.8568C125.75 33.7368 124.7 39.8268 119.02 51.1768C112.91 63.4068 104.27 73.1368 104.27 73.1368" stroke="black" stroke-width="4" stroke-miterlimit="10"/>
<path d="M83.8301 23.7967C83.8301 23.7967 88.1201 13.4167 89.4501 9.74673C90.7801 6.07673 94.3401 0.62673 100.45 2.31673C106.39 3.96673 108.59 7.98673 109.55 20.1467C110.01 26.0267 109.88 32.2067 105.98 44.2767C101.78 57.2867 94.7001 68.2067 94.7001 68.2067" fill="white"/>
<path d="M83.8301 23.7967C83.8301 23.7967 88.1201 13.4167 89.4501 9.74673C90.7801 6.07673 94.3401 0.62673 100.45 2.31673C106.39 3.96673 108.59 7.98673 109.55 20.1467C110.01 26.0267 109.88 32.2067 105.98 44.2767C101.78 57.2867 94.7001 68.2067 94.7001 68.2067" stroke="black" stroke-width="4" stroke-miterlimit="10"/>
<path d="M2 77.6568L23.08 77.4768C26.53 77.4468 29.79 75.9168 32 73.2768C35.52 69.0968 40.83 62.9268 43.5 60.5468C47.62 56.8768 61.58 47.9068 61.58 47.9068C61.58 47.9068 64.67 36.6168 71.2 28.5568C73.14 26.1568 78.07 23.6468 80.74 23.7168C83.82 23.7968 85.61 25.4668 86.78 26.7168C87.95 27.9668 92.83 33.0968 90.71 43.4268C90.24 45.7268 87.38 52.5968 84.51 56.2268C83.49 57.5068 79.76 60.7268 79.76 60.7268C79.76 60.7268 84.18 68.5568 81.15 78.3568C78.12 88.1568 71.78 94.1568 67.7 96.8268" fill="white"/>
<path d="M2 77.6568L23.08 77.4768C26.53 77.4468 29.79 75.9168 32 73.2768C35.52 69.0968 40.83 62.9268 43.5 60.5468C47.62 56.8768 61.58 47.9068 61.58 47.9068C61.58 47.9068 64.67 36.6168 71.2 28.5568C73.14 26.1568 78.07 23.6468 80.74 23.7168C83.82 23.7968 85.61 25.4668 86.78 26.7168C87.95 27.9668 92.83 33.0968 90.71 43.4268C90.24 45.7268 87.38 52.5968 84.51 56.2268C83.49 57.5068 79.76 60.7268 79.76 60.7268C79.76 60.7268 84.18 68.5568 81.15 78.3568C78.12 88.1568 71.78 94.1568 67.7 96.8268" stroke="black" stroke-width="4" stroke-miterlimit="10"/>
<path d="M90.74 123.527C82.26 140.627 67.19 152.007 50 152.007C23.49 152.007 2 124.917 2 91.5068C2 58.0968 23.49 31.0068 50 31.0068C56.63 31.0068 62.94 32.6968 68.68 35.7568" stroke="black" stroke-width="4" stroke-miterlimit="10"/>
<defs>
<linearGradient id="paint0_linear_3_407" x1="11" y1="139.007" x2="73.1541" y2="-6.63763" gradientUnits="userSpaceOnUse">
<stop stop-color="#00011E"/>
<stop offset="1" stop-color="#246EFF"/>
</linearGradient>
</defs>
</svg>
