<svg width="20" height="20" viewBox="0 0 20 20" fill="none" xmlns="http://www.w3.org/2000/svg">
<path d="M16 13L19 16M19 16L16 19M19 16H16.5689C15.6297 16 15.1601 16 14.7338 15.8705C14.3564 15.7559 14.0054 15.5681 13.7007 15.3176C13.3565 15.0348 13.096 14.644 12.575 13.8626L12.3333 13.5M16 1L19 4M19 4L16 7M19 4H16.5689C15.6297 4 15.1601 4 14.7338 4.12945C14.3564 4.24406 14.0054 4.43194 13.7007 4.68236C13.3565 4.96523 13.096 5.35597 12.575 6.13744L7.42496 13.8626C6.90398 14.644 6.64349 15.0348 6.29933 15.3176C5.99464 15.5681 5.64357 15.7559 5.2662 15.8705C4.83994 16 4.37033 16 3.43112 16H1M1 4H3.43112C4.37033 4 4.83994 4 5.2662 4.12945C5.64357 4.24406 5.99464 4.43194 6.29933 4.68236C6.64349 4.96523 6.90398 5.35597 7.42496 6.13744L7.66667 6.5" stroke="#004AE4" stroke-width="2" stroke-linecap="round" stroke-linejoin="round"/>
</svg>
