<svg width="80" height="63" viewBox="0 0 80 63" fill="none" xmlns="http://www.w3.org/2000/svg">
<path d="M11.2726 34.1388C5.04691 27.9131 5.04691 17.8193 11.2726 11.5936C17.4983 5.36792 27.5921 5.36792 33.8178 11.5936L62.6255 40.4014L40.0803 62.9466L11.2726 34.1388Z" fill="url(#paint0_linear_1219_971)"/>
<g filter="url(#filter0_b_1219_971)">
<path d="M68.7274 33.818C74.9531 27.5923 74.9531 17.4985 68.7274 11.2728C62.5017 5.04712 52.4079 5.04712 46.1822 11.2728L18.787 38.668C18.0069 39.4482 18.0069 40.713 18.787 41.4931L38.5072 61.2133C39.2873 61.9934 40.5521 61.9934 41.3322 61.2132L68.7274 33.818Z" fill="white" fill-opacity="0.6"/>
</g>
<path d="M66.913 32.0036C72.1366 26.78 72.1366 18.3108 66.913 13.0872C61.6894 7.86361 53.2202 7.86361 47.9966 13.0872L21.0033 40.0806L39.9197 58.9969L66.913 32.0036Z" stroke="black" stroke-width="5.13193"/>
<defs>
<filter id="filter0_b_1219_971" x="13.07" y="1.47158" width="65.4587" height="65.4587" filterUnits="userSpaceOnUse" color-interpolation-filters="sRGB">
<feFlood flood-opacity="0" result="BackgroundImageFix"/>
<feGaussianBlur in="BackgroundImageFix" stdDeviation="2.56597"/>
<feComposite in2="SourceAlpha" operator="in" result="effect1_backgroundBlur_1219_971"/>
<feBlend mode="normal" in="SourceGraphic" in2="effect1_backgroundBlur_1219_971" result="shape"/>
</filter>
<linearGradient id="paint0_linear_1219_971" x1="17.8283" y1="23.6793" x2="57.0507" y2="46.2126" gradientUnits="userSpaceOnUse">
<stop stop-color="#0053CF"/>
<stop offset="1" stop-color="#246EFF" stop-opacity="0.29"/>
</linearGradient>
</defs>
</svg>
