<svg width="17" height="16" viewBox="0 0 17 16" fill="none" xmlns="http://www.w3.org/2000/svg">
<path d="M11.1667 2.31184C12.1545 2.80274 12.8334 3.82209 12.8334 5C12.8334 6.17791 12.1545 7.19726 11.1667 7.68816M12.5 11.1776C13.5077 11.6336 14.4151 12.3767 15.1667 13.3333M1.83337 13.3333C3.13103 11.6817 4.89283 10.6667 6.83337 10.6667C8.77392 10.6667 10.5357 11.6817 11.8334 13.3333M9.83337 5C9.83337 6.65685 8.49023 8 6.83337 8C5.17652 8 3.83337 6.65685 3.83337 5C3.83337 3.34315 5.17652 2 6.83337 2C8.49023 2 9.83337 3.34315 9.83337 5Z" stroke="#728598" stroke-linecap="round" stroke-linejoin="round"/>
</svg>
