<svg width="200" height="200" viewBox="0 0 200 200" fill="none" xmlns="http://www.w3.org/2000/svg">
<g clip-path="url(#clip0_361_554)">
<path d="M97.8221 137.746C110.268 138.265 121.397 141.404 129.326 146.031C137.28 150.672 141.882 156.721 141.618 163.032C141.355 169.342 136.265 174.987 127.952 178.949C119.665 182.899 108.314 185.1 95.8673 184.58C83.4211 184.061 72.2925 180.922 64.3634 176.295C56.4096 171.654 51.8078 165.605 52.0711 159.294C52.3345 152.984 57.4244 147.339 65.7373 143.377C74.0244 139.427 85.3759 137.226 97.8221 137.746Z" fill="url(#paint0_linear_361_554)" stroke="#26272F" stroke-width="1.125"/>
<path d="M86.735 123.735L74.72 183.323L118.22 184.403L109.22 118.403L86.735 123.735Z" fill="white"/>
<path d="M128.908 108.623C128.908 98.7905 131.158 78.548 131.158 74.4605L135.77 47.1229C134.93 40.0579 131.24 38.1604 127.745 38.2579C123.86 38.3629 120.275 40.1929 119.63 44.0329L114.418 74.918L86.4876 78.6005L80.7201 53.9029C80.0301 50.0779 76.4976 47.6329 72.6651 48.3229C68.8401 49.0129 66.2976 52.6804 66.9876 56.5054L71.8551 83.2355C71.8551 86.243 72.6051 98.8505 72.6051 108.623C72.6051 110.325 72.8076 112.005 73.2201 113.61C73.3851 114.256 73.5876 114.885 73.8201 115.508C74.4051 117.061 75.2151 118.538 76.2501 119.91C76.6626 120.458 77.1201 120.991 77.6076 121.501C77.8551 121.756 78.1101 122.011 78.3726 122.251C79.6926 123.481 81.2601 124.583 83.0751 125.521C83.4351 125.708 83.8101 125.888 84.2001 126.068C84.9651 126.421 85.7751 126.743 86.6301 127.043" fill="white"/>
<path d="M128.908 108.623C128.908 98.7905 131.158 78.548 131.158 74.4605L135.77 47.1229C134.93 40.0579 131.24 38.1604 127.745 38.2579C123.86 38.3629 120.275 40.1929 119.63 44.0329L114.418 74.918L86.4876 78.6005L80.7201 53.9029C80.0301 50.0779 76.4976 47.6329 72.6651 48.3229C68.8401 49.0129 66.2976 52.6804 66.9876 56.5054L71.8551 83.2355C71.8551 86.243 72.6051 98.8505 72.6051 108.623C72.6051 110.325 72.8076 112.005 73.2201 113.61C73.3851 114.255 73.5876 114.885 73.8201 115.508C74.4051 117.061 75.2151 118.538 76.2501 119.91C76.6626 120.458 77.1201 120.991 77.6076 121.501C77.8551 121.756 78.1101 122.011 78.3726 122.251C79.6926 123.481 81.2601 124.583 83.0751 125.521C83.4351 125.708 83.8101 125.888 84.2001 126.068C84.9651 126.421 85.7751 126.743 86.6301 127.043" stroke="#26272F" stroke-width="4.5" stroke-miterlimit="10"/>
<path d="M99.9651 83.281C99.9651 87.391 103.295 90.721 107.405 90.721C111.515 90.721 114.845 87.391 114.845 83.281V70.441C114.845 66.331 111.515 63.001 107.405 63.001C103.295 63.001 99.9651 66.331 99.9651 70.441V83.281Z" fill="white" stroke="#26272F" stroke-width="4.5" stroke-miterlimit="10"/>
<path d="M86.2849 83.2805C86.2849 87.3905 89.6149 90.7205 93.7249 90.7205C97.8349 90.7205 101.165 87.3905 101.165 83.2805V73.6505C101.165 69.5405 97.8349 66.2104 93.7249 66.2104C89.6149 66.2104 86.2849 69.5405 86.2849 73.6505V83.2805Z" fill="white" stroke="#26272F" stroke-width="4.5" stroke-miterlimit="10"/>
<path d="M101.083 103.695C106.423 89.0928 120.613 83.2578 128.661 84.4053C128.661 84.4053 131.016 81.2103 136.431 76.8527C142.266 72.1652 147.238 71.7077 151.221 72.6452C155.203 73.5902 158.953 78.9828 158.218 81.5253C157.483 84.0678 149.098 89.4903 140.721 109.11C132.351 128.723 118.093 129.653 115.221 129.653L118.971 182.153" fill="white"/>
<path d="M101.083 103.695C106.423 89.0928 120.613 83.2578 128.661 84.4053C128.661 84.4053 131.016 81.2103 136.431 76.8528C142.266 72.1652 147.238 71.7077 151.221 72.6452C155.203 73.5902 158.953 78.9828 158.218 81.5253C157.483 84.0678 149.098 89.4903 140.721 109.11C132.351 128.723 118.093 129.653 115.221 129.653L118.971 182.153" stroke="#26272F" stroke-width="4.5" stroke-miterlimit="10"/>
<g style="mix-blend-mode:overlay" opacity="0.3">
<path d="M120.763 106.058C114.373 112.995 106.258 115.92 102.643 112.59C99.0278 109.26 101.278 100.935 107.668 93.9976C114.058 87.0601 122.173 84.1351 125.788 87.4651C129.403 90.7951 127.153 99.1201 120.763 106.058Z" fill="white"/>
<path d="M120.763 106.058C114.373 112.995 106.258 115.92 102.643 112.59C99.0278 109.26 101.278 100.935 107.668 93.9976C114.058 87.0601 122.173 84.1351 125.788 87.4651C129.403 90.7951 127.153 99.1201 120.763 106.058Z" stroke="#26272F" stroke-width="4.5" stroke-miterlimit="10"/>
</g>
<path d="M84.2001 126.076L74.7201 181.403" stroke="#26272F" stroke-width="4.5" stroke-miterlimit="10"/>
<path d="M117.733 140.461C132.583 144.991 142.58 153.601 142.183 163.051C141.628 176.296 120.883 186.181 95.8476 185.138C70.8125 184.096 50.96 172.508 51.515 159.271C51.9275 149.341 63.7025 141.293 80.1275 138.331" stroke="#26272F" stroke-width="3" stroke-miterlimit="10"/>
</g>
<path d="M165.535 58.041L165.529 55.541L168.029 55.5352L168.023 53.0352L163.023 53.0468L163.017 50.5469L168.017 50.5352L168.012 48.0352L165.512 48.041L165.506 45.5411L170.506 45.5294L170.512 48.0294L173.012 48.0236L173.006 45.5236L178.006 45.512L178.012 48.012L175.512 48.0178L175.517 50.5178L180.517 50.5062L180.523 53.0062L175.523 53.0178L175.529 55.5178L178.029 55.512L178.035 58.012L173.035 58.0236L173.029 55.5236L170.529 55.5294L170.535 58.0294L165.535 58.041Z" fill="#26272F"/>
<path d="M30.5349 105.045L30.5291 102.545L33.0291 102.54L33.0232 100.04L28.0233 100.051L28.0174 97.5512L33.0174 97.5396L33.0116 95.0396L30.5116 95.0454L30.5058 92.5454L35.5058 92.5338L35.5116 95.0338L38.0116 95.028L38.0058 92.528L43.0058 92.5164L43.0116 95.0164L40.5116 95.0222L40.5174 97.5222L45.5174 97.5106L45.5232 100.011L40.5232 100.022L40.529 102.522L43.029 102.516L43.0348 105.016L38.0349 105.028L38.029 102.528L35.529 102.534L35.5349 105.034L30.5349 105.045Z" fill="#26272F"/>
<path d="M81.0279 25.0324L81.0232 23.0324L83.0232 23.0278L83.0186 21.0278L79.0186 21.0371L79.014 19.0371L83.0139 19.0278L83.0093 17.0278L81.0093 17.0324L81.0046 15.0325L85.0046 15.0232L85.0093 17.0231L87.0093 17.0185L87.0046 15.0185L91.0046 15.0092L91.0093 17.0092L89.0093 17.0138L89.0139 19.0138L93.0139 19.0045L93.0186 21.0045L89.0186 21.0138L89.0232 23.0138L91.0232 23.0092L91.0279 25.0092L87.0279 25.0185L87.0232 23.0185L85.0232 23.0231L85.0279 25.0231L81.0279 25.0324Z" fill="#26272F"/>
<defs>
<linearGradient id="paint0_linear_361_554" x1="96.5001" y1="186.751" x2="100.002" y2="140.139" gradientUnits="userSpaceOnUse">
<stop stop-color="#00011E"/>
<stop offset="1" stop-color="#246EFF"/>
</linearGradient>
<clipPath id="clip0_361_554">
<rect width="110.558" height="150.713" fill="white" transform="translate(50 36)"/>
</clipPath>
</defs>
</svg>
